<svg id="Слой_1" data-name="Слой 1" xmlns="http://www.w3.org/2000/svg" viewBox="0 0 247.87 52.29"><defs><style>.cls-1,.cls-2{fill:#333;}.cls-1{stroke:#333;stroke-miterlimit:10;stroke-width:1.89px;}.cls-3{fill:blue;}</style></defs><path class="cls-1" d="M74.11,3.81a19.5,19.5,0,0,0-9.19-2.16A18.71,18.71,0,0,0,53.23,5.5a1,1,0,0,0-.53.93V9.14c0,.22.1.33.29.33a.42.42,0,0,0,.34-.17,14.53,14.53,0,0,1,5-3.69A16.45,16.45,0,0,1,74.57,7.34a13.46,13.46,0,0,1,5.22,7.8c0,.36-.09.59-.27.67a1.68,1.68,0,0,1-.75.13H62.31a1.48,1.48,0,0,0-1,.38,1.28,1.28,0,0,0-.41,1,1.26,1.26,0,0,0,.41,1,1.44,1.44,0,0,0,1,.38H79.06c.39,0,.63.07.73.19a1,1,0,0,1,.14.57,13.3,13.3,0,0,1-5.07,8.33,16.41,16.41,0,0,1-16.51,2,14.53,14.53,0,0,1-5-3.69.55.55,0,0,0-.39-.21c-.16,0-.24.15-.24.38v2.7a1,1,0,0,0,.53.93,18.94,18.94,0,0,0,5.31,2.81,20.41,20.41,0,0,0,15.57-1.12,17.68,17.68,0,0,0,6.6-5.79,14,14,0,0,0,2.46-8A14.07,14.07,0,0,0,80.71,9.6,17.77,17.77,0,0,0,74.11,3.81Z"/><path class="cls-1" d="M108.23,12.85a1.71,1.71,0,0,0-1.16.38,1.21,1.21,0,0,0-.44.93v6.68a.36.36,0,0,1-.12.28.45.45,0,0,1-.31.1H93.26a.43.43,0,0,1-.31-.1.34.34,0,0,1-.13-.28V14.16a1.2,1.2,0,0,0-.43-.93,1.64,1.64,0,0,0-1.11-.38,1.72,1.72,0,0,0-1.16.38,1.2,1.2,0,0,0-.43.93V31.79a1.2,1.2,0,0,0,.43.93,1.72,1.72,0,0,0,1.16.38,1.64,1.64,0,0,0,1.11-.38,1.2,1.2,0,0,0,.43-.93V24.35a.35.35,0,0,1,.13-.28.43.43,0,0,1,.31-.1H106.2a.45.45,0,0,1,.31.1.38.38,0,0,1,.12.28v7.44a1.21,1.21,0,0,0,.44.93,1.71,1.71,0,0,0,1.16.38,1.64,1.64,0,0,0,1.11-.38,1.2,1.2,0,0,0,.43-.93V14.16a1.2,1.2,0,0,0-.43-.93A1.64,1.64,0,0,0,108.23,12.85Z"/><path class="cls-1" d="M139.08,12.85a1.64,1.64,0,0,0-1.11.38,1.21,1.21,0,0,0-.44.93v1q0,.5-.09.57a.38.38,0,0,1-.19.06.44.44,0,0,1-.34-.17,9.61,9.61,0,0,0-3.75-2.41,13.81,13.81,0,0,0-4.8-.84,12.68,12.68,0,0,0-8.64,3.12A9.7,9.7,0,0,0,116.14,23a9.52,9.52,0,0,0,3.63,7.52,12.93,12.93,0,0,0,8.69,3.09,11.93,11.93,0,0,0,8.64-3.38.2.2,0,0,1,.19-.09c.16,0,.24.13.24.38v1.27a1.18,1.18,0,0,0,.44.93,1.81,1.81,0,0,0,2.22,0,1.17,1.17,0,0,0,.43-.93V14.16a1.2,1.2,0,0,0-.43-.93A1.64,1.64,0,0,0,139.08,12.85Zm-4.23,15.87a9.12,9.12,0,0,1-6.39,2.39,9.46,9.46,0,0,1-6.52-2.39,7.33,7.33,0,0,1-2.7-5.68,7.52,7.52,0,0,1,2.65-5.73,9.8,9.8,0,0,1,12.92,0A7.52,7.52,0,0,1,137.49,23,7.4,7.4,0,0,1,134.85,28.72Z"/><path class="cls-1" d="M159.31,12.35a12.64,12.64,0,0,0-8.62,3.1,9.64,9.64,0,0,0-3.55,7.5,9.77,9.77,0,0,0,3.55,7.55,12.54,12.54,0,0,0,8.62,3.15A12.8,12.8,0,0,0,167,31.24a1,1,0,0,0,.43-.89V27.73q0-.37-.09-.42a.41.41,0,0,0-.15,0,.77.77,0,0,0-.53.33,10.07,10.07,0,0,1-3.19,2.54,8.87,8.87,0,0,1-4.15,1,9.17,9.17,0,0,1-6.42-2.43A7.53,7.53,0,0,1,150.23,23a7.4,7.4,0,0,1,2.66-5.68,9.27,9.27,0,0,1,6.42-2.39,9.11,9.11,0,0,1,3.94.85A10,10,0,0,1,166.36,18c.35.34.61.51.77.51s.29-.2.29-.6V15.56a.9.9,0,0,0-.38-.85A12.39,12.39,0,0,0,159.31,12.35Z"/><path class="cls-1" d="M188.28,12.85H173.94a1.57,1.57,0,0,0-1.06.38,1.3,1.3,0,0,0,0,1.95,1.57,1.57,0,0,0,1.06.38h5.12a.45.45,0,0,1,.36.13.4.4,0,0,1,.12.29V31.79a1.21,1.21,0,0,0,.44.93,1.7,1.7,0,0,0,1.15.38,1.67,1.67,0,0,0,1.12-.38,1.2,1.2,0,0,0,.43-.93V16a.43.43,0,0,1,.43-.42h5.17a1.57,1.57,0,0,0,1.06-.38,1.3,1.3,0,0,0,0-1.95A1.57,1.57,0,0,0,188.28,12.85Z"/><path class="cls-1" d="M215.85,15.47a13.47,13.47,0,0,0-17.24,0,9.72,9.72,0,0,0,0,15.05,13.43,13.43,0,0,0,17.24,0,9.72,9.72,0,0,0,0-15ZM213.63,28.7a9.73,9.73,0,0,1-12.82,0,7.41,7.41,0,0,1,0-11.41,9.73,9.73,0,0,1,12.82,0,7.45,7.45,0,0,1,0,11.41Z"/><path class="cls-1" d="M245.74,13.23a1.59,1.59,0,0,0-1.07-.38,1.44,1.44,0,0,0-1.2.43l-.58.59c-.77.7-2.09,2-4,4-.81.82-1.37,1.41-1.69,1.78-.48.67-.9,1-1.26,1s-.86-.45-1.54-1.35c-.84-1-2.25-2.41-4.25-4.36-.84-.81-1.38-1.36-1.64-1.64a1.67,1.67,0,0,0-1.16-.43,1.72,1.72,0,0,0-1.16.38,1.2,1.2,0,0,0-.43.93V31.79a1.2,1.2,0,0,0,.43.93,1.72,1.72,0,0,0,1.16.38,1.64,1.64,0,0,0,1.11-.38,1.2,1.2,0,0,0,.43-.93v-14c0-.17,0-.26.1-.26L234.78,23a6,6,0,0,0,.62.51,1,1,0,0,0,.58.17,1.09,1.09,0,0,0,.66-.19q.26-.2,3.59-3.4l2.71-2.54c.06,0,.09.09.09.26v14a1.21,1.21,0,0,0,.44.93,1.71,1.71,0,0,0,1.16.38,1.64,1.64,0,0,0,1.11-.38,1.2,1.2,0,0,0,.43-.93V14.16A1.2,1.2,0,0,0,245.74,13.23Z"/><path class="cls-2" d="M54.93,49.86a3.08,3.08,0,0,1-2.32-1,3.32,3.32,0,0,1,0-4.59,3.09,3.09,0,0,1,2.34-1,3.63,3.63,0,0,1,1.86.48v.57a3.5,3.5,0,0,0-1.8-.5,2.65,2.65,0,0,0-1.95.77,2.78,2.78,0,0,0,0,3.86,2.7,2.7,0,0,0,1.95.76,3.25,3.25,0,0,0,1.92-.58v.58A3.56,3.56,0,0,1,54.93,49.86Z"/><path class="cls-2" d="M61,49.7h-.58V44.06H58v-.53h5.29v.53H61Z"/><path class="cls-2" d="M69.82,48.91a3.42,3.42,0,0,1-4.73,0,3.36,3.36,0,0,1,0-4.58,3.39,3.39,0,0,1,4.73,0,3.34,3.34,0,0,1,0,4.58Zm-4.28-.36a2.66,2.66,0,0,0,1.92.76,2.57,2.57,0,0,0,1.9-.76,2.78,2.78,0,0,0,0-3.86,2.54,2.54,0,0,0-1.9-.77,2.6,2.6,0,0,0-1.92.77,2.83,2.83,0,0,0,0,3.86Z"/><path class="cls-2" d="M73.19,49.7h-.58V43.53h.56l2.74,3.1,2.74-3.1h.56V49.7h-.58V44.36l-2.62,3h-.22l-2.6-3Z"/><path class="cls-2" d="M83.4,49.86a2.72,2.72,0,0,1-1.68-.54,1.75,1.75,0,0,1-.7-1.48,1.74,1.74,0,0,1,.73-1.47,2.91,2.91,0,0,1,1.83-.55,4.53,4.53,0,0,1,2.42.67v-.81c0-1.18-.73-1.76-2.2-1.76a3.73,3.73,0,0,0-2.09.65V44a3.93,3.93,0,0,1,2.2-.61,3,3,0,0,1,2,.58,2,2,0,0,1,.72,1.67v2.75a1.05,1.05,0,0,0,.18.64.58.58,0,0,0,.49.24.8.8,0,0,0,.36-.08v.48a1,1,0,0,1-.5.1,1,1,0,0,1-.73-.28,1.11,1.11,0,0,1-.33-.79A3.36,3.36,0,0,1,83.4,49.86Zm.17-.55A3,3,0,0,0,85,49a3,3,0,0,0,1-.88v-1a4.12,4.12,0,0,0-2.26-.73,2.6,2.6,0,0,0-1.54.41,1.36,1.36,0,0,0,0,2.19A2.43,2.43,0,0,0,83.57,49.31Z"/><path class="cls-2" d="M91.22,49.7h-.58V44.06H88.28v-.53h5.29v.53H91.22Z"/><path class="cls-2" d="M100.07,48.91a3.41,3.41,0,0,1-4.72,0,3.34,3.34,0,0,1,0-4.58,3.38,3.38,0,0,1,4.72,0,3.31,3.31,0,0,1,0,4.58Zm-4.27-.36a2.64,2.64,0,0,0,1.91.76,2.59,2.59,0,0,0,1.91-.76,2.8,2.8,0,0,0,0-3.86,2.56,2.56,0,0,0-1.91-.77,2.59,2.59,0,0,0-1.91.77,2.83,2.83,0,0,0,0,3.86Z"/><path class="cls-2" d="M103.53,45.51l0-2h4.35V49.7h-.59V44.06h-3.19l0,1.3A14.54,14.54,0,0,1,104,47a7.17,7.17,0,0,1-.28,1.33A1.7,1.7,0,0,1,102,49.71h-.23v-.54H102c.6,0,1-.4,1.19-1.2A12.1,12.1,0,0,0,103.53,45.51Z"/><path class="cls-2" d="M115.44,48.91a3.41,3.41,0,0,1-4.72,0,3.34,3.34,0,0,1,0-4.58,3.38,3.38,0,0,1,4.72,0,3.31,3.31,0,0,1,0,4.58Zm-4.27-.36a2.66,2.66,0,0,0,1.92.76,2.57,2.57,0,0,0,1.9-.76,2.78,2.78,0,0,0,0-3.86,2.54,2.54,0,0,0-1.9-.77,2.6,2.6,0,0,0-1.92.77,2.83,2.83,0,0,0,0,3.86Z"/><path class="cls-2" d="M118.82,49.7h-.58V43.53h4.51v.53h-3.93Z"/><path class="cls-2" d="M125,49.7h-.55V43.53h.59v5.29l4.42-5.29H130V49.7h-.58V44.42Z"/><path class="cls-2" d="M137.2,49.7h-.59V47.05a5.29,5.29,0,0,1-2.14.44,2.58,2.58,0,0,1-1.85-.57,2.38,2.38,0,0,1-.6-1.81V43.53h.58v1.52a2,2,0,0,0,.47,1.47,2.3,2.3,0,0,0,1.55.42,4.37,4.37,0,0,0,2-.46V43.53h.59Z"/><path class="cls-2" d="M142.45,49.86A3.37,3.37,0,0,1,140,49a3.11,3.11,0,0,1-.95-2.33,3.29,3.29,0,0,1,.85-2.32,2.87,2.87,0,0,1,2.21-.93,2.8,2.8,0,0,1,1.35.31,2.14,2.14,0,0,1,.89.82,3.68,3.68,0,0,1,.61,2v.2h-5.33a2.55,2.55,0,0,0,.81,1.89,3,3,0,0,0,2.05.72,3.52,3.52,0,0,0,2-.58v.57A3.33,3.33,0,0,1,142.45,49.86Zm-2.77-3.67h4.74a2.39,2.39,0,0,0-.13-.73,3.46,3.46,0,0,0-.38-.74,1.92,1.92,0,0,0-.72-.58,2.38,2.38,0,0,0-1.05-.22,2.3,2.3,0,0,0-1.75.69A2.51,2.51,0,0,0,139.68,46.19Z"/><path class="cls-2" d="M149.67,49.86a3.1,3.1,0,0,1-2.33-1,3.32,3.32,0,0,1,0-4.59,3.12,3.12,0,0,1,2.34-1,3.67,3.67,0,0,1,1.87.48v.57a3.5,3.5,0,0,0-1.8-.5,2.68,2.68,0,0,0-2,.77,2.8,2.8,0,0,0,0,3.86,2.74,2.74,0,0,0,2,.76,3.22,3.22,0,0,0,1.91-.58v.58A3.5,3.5,0,0,1,149.67,49.86Z"/><path class="cls-2" d="M154.24,49.7h-.58V43.53h.58v2.6l3.25-2.6h.85l-3.48,2.79,3.95,3.38h-.88l-3.69-3.16Z"/><path class="cls-2" d="M160.88,49.7h-.55V43.53h.59v5.29l4.42-5.29h.53V49.7h-.58V44.42Z"/><path class="cls-2" d="M171.13,49.86a3.35,3.35,0,0,1-2.41-.91,3.08,3.08,0,0,1-1-2.33,3.3,3.3,0,0,1,.86-2.32,2.84,2.84,0,0,1,2.21-.93,2.73,2.73,0,0,1,1.34.31,2.17,2.17,0,0,1,.9.82,3.77,3.77,0,0,1,.61,2v.2h-5.34a2.52,2.52,0,0,0,.82,1.89,2.94,2.94,0,0,0,2,.72,3.53,3.53,0,0,0,2-.58v.57A3.37,3.37,0,0,1,171.13,49.86Zm-2.77-3.67h4.73a2.12,2.12,0,0,0-.13-.73,2.74,2.74,0,0,0-.38-.74,1.92,1.92,0,0,0-.72-.58,2.36,2.36,0,0,0-1-.22,2.3,2.3,0,0,0-1.75.69A2.46,2.46,0,0,0,168.36,46.19Z"/><path class="cls-2" d="M179.6,49.7H179V43.53h.56l2.74,3.1,2.74-3.1h.56V49.7H185V44.36l-2.62,3h-.22l-2.6-3Z"/><path class="cls-2" d="M189.81,49.86a2.72,2.72,0,0,1-1.68-.54,1.75,1.75,0,0,1-.7-1.48,1.74,1.74,0,0,1,.73-1.47,2.91,2.91,0,0,1,1.83-.55,4.53,4.53,0,0,1,2.42.67v-.81c0-1.18-.73-1.76-2.2-1.76a3.73,3.73,0,0,0-2.09.65V44a3.93,3.93,0,0,1,2.2-.61,3,3,0,0,1,2,.58,2,2,0,0,1,.72,1.67v2.75a1.05,1.05,0,0,0,.18.64.58.58,0,0,0,.49.24.8.8,0,0,0,.36-.08v.48a1.18,1.18,0,0,1-1.24-.18,1.2,1.2,0,0,1-.33-.79A3.33,3.33,0,0,1,189.81,49.86Zm.17-.55a3,3,0,0,0,1.39-.35,3,3,0,0,0,1-.88v-1a4.12,4.12,0,0,0-2.26-.73,2.6,2.6,0,0,0-1.54.41,1.36,1.36,0,0,0,0,2.19A2.43,2.43,0,0,0,190,49.31Z"/><path class="cls-2" d="M197.63,49.7H197V44.06h-2.35v-.53H200v.53h-2.35Z"/><path class="cls-2" d="M204.21,49.86a3.35,3.35,0,0,1-2.4-.91,3.08,3.08,0,0,1-1-2.33,3.29,3.29,0,0,1,.85-2.32,2.88,2.88,0,0,1,2.22-.93,2.79,2.79,0,0,1,1.34.31,2.17,2.17,0,0,1,.9.82,3.75,3.75,0,0,1,.6,2v.2h-5.33a2.52,2.52,0,0,0,.82,1.89,2.92,2.92,0,0,0,2,.72,3.49,3.49,0,0,0,2-.58v.57A3.33,3.33,0,0,1,204.21,49.86Zm-2.77-3.67h4.74a2.12,2.12,0,0,0-.13-.73,3.06,3.06,0,0,0-.38-.74,1.92,1.92,0,0,0-.72-.58,2.38,2.38,0,0,0-1-.22,2.3,2.3,0,0,0-1.74.69A2.53,2.53,0,0,0,201.44,46.19Z"/><path class="cls-2" d="M211.77,43.37a2.94,2.94,0,0,1,2.27,1,3.41,3.41,0,0,1,0,4.57,2.94,2.94,0,0,1-2.27,1,3,3,0,0,1-2.55-1.26v3.69h-.58V43.53h.58v1.08A3,3,0,0,1,211.77,43.37Zm-.1.55a2.74,2.74,0,0,0-1.48.42,2.5,2.5,0,0,0-1,1.1v2.33a2.74,2.74,0,0,0,2.45,1.54,2.54,2.54,0,0,0,1.89-.77,2.67,2.67,0,0,0,.76-1.93,2.6,2.6,0,0,0-.76-1.92A2.5,2.5,0,0,0,211.67,43.92Z"/><path class="cls-2" d="M217.34,49.7h-.55V43.53h.58v5.29l4.43-5.29h.53V49.7h-.58V44.42Z"/><path class="cls-2" d="M226.52,49.86a2.72,2.72,0,0,1-1.68-.54,1.75,1.75,0,0,1-.7-1.48,1.74,1.74,0,0,1,.73-1.47,2.91,2.91,0,0,1,1.83-.55,4.53,4.53,0,0,1,2.42.67v-.81c0-1.18-.73-1.76-2.2-1.76a3.73,3.73,0,0,0-2.09.65V44a3.93,3.93,0,0,1,2.2-.61,3,3,0,0,1,2,.58,2,2,0,0,1,.72,1.67v2.75a1.05,1.05,0,0,0,.18.64.58.58,0,0,0,.49.24.8.8,0,0,0,.36-.08v.48a1,1,0,0,1-.5.1,1,1,0,0,1-.73-.28,1.11,1.11,0,0,1-.33-.79A3.36,3.36,0,0,1,226.52,49.86Zm.17-.55a3,3,0,0,0,1.39-.35,3,3,0,0,0,1-.88v-1a4.12,4.12,0,0,0-2.26-.73,2.6,2.6,0,0,0-1.54.41,1.36,1.36,0,0,0,0,2.19A2.43,2.43,0,0,0,226.69,49.31Z"/><path class="cls-2" d="M233.15,45.51l0-2h4.35V49.7H237V44.06h-3.2l0,1.3a14.73,14.73,0,0,1-.1,1.6,7.21,7.21,0,0,1-.29,1.33,1.69,1.69,0,0,1-1.72,1.42h-.23v-.54h.26c.59,0,1-.4,1.19-1.2A12.19,12.19,0,0,0,233.15,45.51Z"/><path class="cls-2" d="M242.57,49.7h-2.68V43.53h.58v2.24h2.09a2.41,2.41,0,0,1,1.65.53,1.79,1.79,0,0,1,.6,1.42,1.85,1.85,0,0,1-.59,1.44A2.34,2.34,0,0,1,242.57,49.7Zm-2.1-3.4v2.87h2a2,2,0,0,0,1.28-.38,1.28,1.28,0,0,0,.46-1.06,1.29,1.29,0,0,0-.46-1.06,2,2,0,0,0-1.28-.37Zm6.07,3.4H246V43.53h.58Z"/><path class="cls-3" d="M0,12.82A14.24,14.24,0,0,1,.27,9.59,9.61,9.61,0,0,1,3.2,5c2,7,5.17,9.06,12.17,7.3,3.74-.94,7.23-2.91,10.82-4.46,1.07-.46,2.06-1.13,3.15-1.57,6.54-2.58,11.47.23,11.52,7.24a145.28,145.28,0,0,1-1.57,18.7,48.37,48.37,0,0,1-2.19,9.15,14.45,14.45,0,0,1-2.87,5.06c-2.67,3-6.57,2.3-8.2-1.33-1.88-4.14-4.13-8-7.82-10.75a19.34,19.34,0,0,0-5.35-2.87A6.66,6.66,0,0,0,8,31.41c-2.92,1.3-3.49,5.07-3.54,5.5C1.78,27.16.34,19.76.12,17.07,0,15,0,12.82,0,12.82Z"/><path class="cls-3" d="M19.17,38.9a7.28,7.28,0,0,1-1.48,5.84c-.37.49-2.62,3.55-5.72,3.17-2.23-.26-3.55-2.13-4.32-3.21a9.38,9.38,0,0,1-1.57-7.08c.21-1,.63-3,2.33-4,2-1.18,4.33-.23,5.59.27S18.39,35.66,19.17,38.9Z"/><path class="cls-3" d="M14.09,10.22c-1.77.16-5.08.46-6.93-1.68a4.56,4.56,0,0,1-1-3.83C6.6,2.94,8.54,1.85,11,2.5,15.06,3.58,19,5,23.05,6.21A16.08,16.08,0,0,1,14.09,10.22Z"/></svg>