<?xml version="1.0" encoding="utf-8"?>
<!-- Generator: Adobe Illustrator 24.2.3, SVG Export Plug-In . SVG Version: 6.00 Build 0)  -->
<svg version="1.1" id="Слой_1" xmlns="http://www.w3.org/2000/svg" xmlns:xlink="http://www.w3.org/1999/xlink" x="0px" y="0px"
	 viewBox="0 0 555 208" style="enable-background:new 0 0 555 208;" xml:space="preserve">
<style type="text/css">
	.st0{opacity:0.87;fill:#D3C4B7;}
	.st1{fill:#F5F3F5;}
	.st2{fill:#ABABAB;}
	.st3{fill:#FFFFFF;}
	.st4{clip-path:url(#SVGID_2_);}
	.st5{fill:#D10613;}
	.st6{fill:#D10613;stroke:#1D1D1B;stroke-width:2.3483;stroke-miterlimit:10;}
	.st7{clip-path:url(#SVGID_4_);fill:none;stroke:#1D1D1B;stroke-width:7.0448;stroke-miterlimit:10;}
	.st8{fill:none;stroke:#1D1D1B;stroke-width:3.5224;stroke-miterlimit:10;}
	.st9{fill:#1D1D1B;}
	.st10{fill:#FFFFFF;stroke:#FFFFFF;stroke-width:1.5264;stroke-miterlimit:10;}
	.st11{fill:#008080;stroke:#1D1D1B;stroke-width:2.3483;stroke-miterlimit:10;}
	.st12{fill:none;stroke:#1D1D1B;stroke-width:2.3483;stroke-miterlimit:10;}
	.st13{fill:#E9BF00;stroke:#1D1D1B;stroke-width:2.3483;stroke-miterlimit:10;}
	.st14{fill:#E9BF00;}
	.st15{fill:#FFFFFF;stroke:#1D1D1B;stroke-width:2.3483;stroke-miterlimit:10;}
	.st16{fill:#7D3D1D;}
	.st17{fill:#1A1A1A;stroke:#1A1A1A;stroke-width:7.0448;stroke-miterlimit:10;}
	.st18{fill:#7A08E9;}
	.st19{clip-path:url(#SVGID_20_);}
	.st20{clip-path:url(#SVGID_24_);}
	.st21{clip-path:url(#SVGID_26_);}
	.st22{clip-path:url(#SVGID_28_);}
	.st23{fill:#355219;}
	.st24{fill:none;stroke:#355219;stroke-width:0.5379;stroke-miterlimit:10;}
	.st25{fill:url(#SVGID_29_);}
	.st26{opacity:0.7;}
	.st27{fill:#47494A;}
	.st28{opacity:0.5;fill:url(#SVGID_30_);}
	.st29{fill:url(#SVGID_31_);}
	.st30{fill:url(#SVGID_32_);}
	.st31{opacity:0.8;fill:url(#SVGID_33_);}
	.st32{opacity:0.8;fill:url(#SVGID_34_);}
	.st33{fill:#202224;}
	.st34{fill:#3F4042;}
	.st35{fill:none;}
	.st36{clip-path:url(#SVGID_36_);}
	.st37{fill:#E6E6E6;}
	.st38{fill:none;stroke:#4D4D4D;stroke-width:1.081;stroke-miterlimit:10;}
	.st39{fill:none;stroke:#BEBDBC;stroke-miterlimit:10;}
	.st40{clip-path:url(#SVGID_50_);}
	.st41{fill:#273116;}
	.st42{clip-path:url(#SVGID_52_);}
	.st43{clip-path:url(#SVGID_54_);}
	.st44{fill:none;stroke:#355219;stroke-width:0.5105;stroke-miterlimit:10;}
	.st45{fill:#E6D8D4;}
	.st46{fill:#9C969A;}
	.st47{fill:#333333;}
	.st48{fill:#DBDBDB;}
	.st49{clip-path:url(#SVGID_82_);}
	.st50{fill:#FFED00;}
	.st51{fill:none;stroke:#4E4D4D;stroke-width:0.5203;stroke-miterlimit:10;}
	.st52{opacity:0.29;}
	.st53{fill:url(#SVGID_89_);}
	.st54{fill:url(#SVGID_90_);}
	.st55{fill:url(#SVGID_91_);}
	.st56{fill:url(#SVGID_92_);}
	.st57{fill:url(#SVGID_93_);}
	.st58{fill:url(#SVGID_94_);}
	.st59{fill:url(#SVGID_95_);}
	.st60{fill:url(#SVGID_96_);}
	.st61{fill:url(#SVGID_97_);}
	.st62{fill:url(#SVGID_98_);}
	.st63{fill:url(#SVGID_99_);}
	.st64{fill:url(#SVGID_100_);}
	.st65{fill:url(#SVGID_101_);}
	.st66{fill:url(#SVGID_102_);}
	.st67{fill:url(#SVGID_103_);}
	.st68{fill:url(#SVGID_104_);}
	.st69{fill:url(#SVGID_105_);}
	.st70{opacity:0.38;fill:url(#SVGID_106_);}
	.st71{opacity:0.38;fill:url(#SVGID_107_);}
	.st72{fill:#CCCFD1;}
	.st73{fill:#1A1A1A;}
	.st74{fill:#262626;}
	.st75{fill:url(#SVGID_108_);}
	.st76{fill:url(#SVGID_109_);}
	.st77{fill:url(#SVGID_110_);}
	.st78{fill:url(#SVGID_111_);}
	.st79{fill:url(#SVGID_112_);}
	.st80{fill:url(#SVGID_113_);}
	.st81{fill:url(#SVGID_114_);}
	.st82{fill:url(#SVGID_115_);}
	.st83{fill:url(#SVGID_116_);}
	.st84{fill:url(#SVGID_117_);}
	.st85{fill:url(#SVGID_118_);}
	.st86{fill:#555658;}
	.st87{fill:url(#SVGID_119_);}
	.st88{fill:url(#SVGID_120_);}
	.st89{clip-path:url(#SVGID_122_);}
	.st90{clip-path:url(#SVGID_124_);}
	.st91{clip-path:url(#SVGID_134_);fill:none;stroke:#1D1D1B;stroke-width:7.0448;stroke-miterlimit:10;}
	.st92{fill:#EEEAE3;}
	.st93{fill:#FFFFFF;stroke:#FFFFFF;stroke-width:0.8924;stroke-miterlimit:10;}
	.st94{opacity:0.81;fill:#575756;}
	.st95{opacity:0.87;fill:#ECEBEA;}
	.st96{clip-path:url(#SVGID_158_);fill:#A9A7A1;}
	.st97{clip-path:url(#SVGID_158_);}
	.st98{clip-path:url(#SVGID_160_);}
	.st99{clip-path:url(#SVGID_164_);fill:#A5A69D;}
	.st100{clip-path:url(#SVGID_170_);}
	.st101{fill:#A5A69D;}
	.st102{clip-path:url(#SVGID_174_);}
	.st103{clip-path:url(#SVGID_178_);}
	.st104{clip-path:url(#SVGID_184_);fill:#A5A69D;}
	.st105{clip-path:url(#SVGID_190_);fill:#A5A69D;}
	.st106{clip-path:url(#SVGID_196_);}
	.st107{clip-path:url(#SVGID_202_);}
	.st108{opacity:0.9;fill:#EDEAE6;}
	.st109{fill:#FFFFFF;stroke:#FFFFFF;stroke-width:0.6618;stroke-miterlimit:10;}
	.st110{opacity:0.28;fill:#575756;}
	.st111{opacity:0.81;}
	.st112{fill:#575756;}
</style>
<path class="st110" d="M365.45,85.05c-4.05-14.94-12.68-26.09-25.69-33.98c-18.26-11.09-37.38-16.7-58.28-8.31
	c-11.75-14.16-33.97-18.41-44.43-6.49c-6.61,7.53-14.31,9.19-22.63,11.6c-8.09,2.35-16.16,4.81-24.07,7.68
	c-4.43,1.61-8.5,4.16-12.74,6.28c1.24,1.17,1.97,1.35,2.55,1.13c2.4-0.92,4.75-1.95,7.11-2.97c15.66-6.8,32-10.14,49.23-9.82
	c8.12,0.15,14.03,3.01,17.39,10.62c3.93,8.92,6.59,13.06,8.62,18.95c0.68,1.97,7.19,20.2,21.68,33.48
	c3.48,3.19,8.8,7.34,16.37,10.97c-0.15-0.07-0.31-0.13-0.45-0.2c-2.81,6.11-6.38,10.13-8.79,12.45c-4.47,4.3-8.9,6.53-12.15,8.17
	c-3.78,1.9-7.1,3.09-9.49,3.82c1.31,0.41,3.47,0.88,6.1,0.54c4.23-0.55,7.04-2.88,8.13-3.9c-0.44,1.3-0.89,2.6-1.33,3.9
	c4.04-2.72,9.06-6.71,13.92-12.37c3.3-3.84,5.78-7.58,7.64-10.84c-0.06-0.03-0.13-0.05-0.19-0.08c3.44,1.38,7.81,2.91,13,4.16
	c3.38,0.82,6.46,1.66,9.48,2.18c-0.72,3.55-2.15,6.03-3.1,7.42c-1.91,2.81-4.07,4.38-5.99,5.79c-2.5,1.83-4.84,3-6.54,3.72
	c1.45,0.18,4.4,0.34,7.79-0.93c3.33-1.25,5.41-3.27,6.39-4.34c-0.36,1.76-0.72,3.53-1.08,5.29c3.04-2.28,4.26-4.57,4.82-6.07
	c0.41-1.09,0.74-3.07,1.4-6.98c0.24-1.41,0.43-2.59,0.56-3.43c1.51,0.07,3.02,0.01,4.58-0.22
	C361.07,128.5,372.24,110.08,365.45,85.05z M328.47,132.31c-0.32-0.03-0.59-0.09-0.89-0.13c0.31,0.04,0.62,0.1,0.93,0.14
	C328.5,132.31,328.49,132.31,328.47,132.31z"/>
<g class="st111">
	<path class="st112" d="M211.9,195.58c1.02,0.63,2.52,1.16,4.1,1.16c2.33,0,3.7-1.23,3.7-3.02c0-1.66-0.94-2.6-3.33-3.53
		c-2.89-1.02-4.68-2.52-4.68-5.02c0-2.76,2.29-4.81,5.73-4.81c1.81,0,3.12,0.43,3.91,0.87l-0.62,1.86
		c-0.58-0.31-1.77-0.84-3.36-0.84c-2.42,0-3.34,1.45-3.34,2.65c0,1.65,1.08,2.47,3.52,3.41c3,1.16,4.52,2.6,4.52,5.21
		c0,2.73-2.02,5.09-6.2,5.09c-1.7,0-3.57-0.5-4.51-1.13L211.9,195.58z"/>
	<path class="st112" d="M238.63,182.61h-5.38v-1.94h13.11v1.94h-5.41v15.77h-2.31V182.61z"/>
	<path class="st112" d="M260.72,180.66v10.49c0,3.97,1.76,5.65,4.12,5.65c2.62,0,4.31-1.74,4.31-5.65v-10.49h2.31v10.32
		c0,5.44-2.86,7.68-6.7,7.68c-3.62,0-6.35-2.08-6.35-7.57v-10.43H260.72z"/>
	<path class="st112" d="M285.53,180.9c1.4-0.21,3.05-0.36,4.87-0.36c3.28,0,5.62,0.76,7.16,2.21c1.58,1.44,2.5,3.49,2.5,6.36
		c0,2.89-0.89,5.25-2.55,6.88c-1.65,1.65-4.38,2.55-7.82,2.55c-1.63,0-3-0.08-4.16-0.21V180.9z M287.82,196.56
		c0.57,0.11,1.42,0.13,2.3,0.13c4.89,0,7.54-2.73,7.54-7.51c0.03-4.18-2.33-6.83-7.17-6.83c-1.18,0-2.07,0.11-2.67,0.23V196.56z"/>
	<path class="st112" d="M315.43,180.66v17.71h-2.29v-17.71H315.43z"/>
	<path class="st112" d="M344.65,189.33c0,6.09-3.7,9.33-8.22,9.33c-4.67,0-7.96-3.63-7.96-8.99c0-5.62,3.5-9.3,8.22-9.3
		C341.53,180.37,344.65,184.08,344.65,189.33z M330.92,189.62c0,3.78,2.05,7.17,5.65,7.17c3.62,0,5.67-3.33,5.67-7.36
		c0-3.52-1.84-7.2-5.65-7.2C332.81,182.24,330.92,185.73,330.92,189.62z"/>
</g>
<g class="st111">
	<path class="st112" d="M77.18,146.36c-4.33-2.16-9.29-6.18-14.89-12.03l-26.73-28.01v42.02H24.11V79.57c0-4.33-0.59-7.53-1.78-9.61
		c-1.19-2.08-3.56-3.12-7.13-3.12h-2.55v-2.55h11.45c3.14,0,5.49,0.4,7.06,1.21c1.57,0.81,2.69,2.27,3.37,4.39
		c0.68,2.12,1.02,5.35,1.02,9.68v24.83l26.73-26.74l2.55-2.67c2.38-2.46,4.37-4.39,5.98-5.79c1.61-1.4,3.52-2.57,5.73-3.5
		c2.21-0.93,4.67-1.4,7.38-1.4h6.36v3.18c-3.56,0-6.66,0.62-9.29,1.85c-2.63,1.23-5.69,3.59-9.16,7.07l-24.82,24.83l29.27,30.56
		c3.73,3.82,7.51,7.02,11.33,9.61c3.82,2.59,7.26,4.1,10.31,4.52v2.42c-2.55,0.85-5.3,1.27-8.27,1.27
		C85.67,149.6,81.51,148.52,77.18,146.36z"/>
	<path class="st112" d="M224.73,66.09l-22.45,56.13l-14.68-36.27c-3.22-8.06-7.22-13.67-12-16.84c-4.78-3.17-10.27-4.75-16.49-4.75
		c-1.15,0-2.3,0.06-3.45,0.17c-1.15,0.12-2.02,0.17-2.59,0.17v3.45c3.8,0.23,6.93,1.58,9.41,4.06c2.47,2.48,5.09,6.77,7.86,12.87
		l-14.68,37.14L141,85.95c-3.22-8.06-7.22-13.67-12-16.84c-4.43-2.94-9.49-4.5-15.16-4.71v-0.14h-11.46v69.26
		c0,4.36,0.34,7.61,1.02,9.75c0.68,2.14,1.8,3.61,3.37,4.42c1.57,0.81,3.92,1.22,7.06,1.22h11.46v-2.57h-2.55
		c-3.56,0-5.94-1.05-7.13-3.14c-1.19-2.09-1.78-5.32-1.78-9.68V70.24c1.05,0.6,2.04,1.28,2.91,2.15c2.59,2.59,5.21,7.11,7.86,13.56
		l25.03,63.04h3.45l21.58-53.54l21.58,53.54h3.45l33.67-82.91H224.73z"/>
	<path class="st112" d="M243.67,149.27c-1.57-0.81-2.7-2.28-3.37-4.42c-0.68-2.13-1.02-5.38-1.02-9.74V65.92h11.46v69.19
		c0,4.36,0.59,7.58,1.78,9.67c1.19,2.09,3.56,3.14,7.13,3.14h2.55v2.56h-11.46C247.6,150.49,245.24,150.08,243.67,149.27z"/>
	<path class="st112" d="M128.26,33.13c-0.01,2.38-0.37,9.45-5.48,15.95c-7.14,9.09-17.84,9.79-19.52,9.88
		C107.34,44.65,113.11,33.96,128.26,33.13z"/>
	<path class="st112" d="M533.76,150.98c-7.53,0.63-12.91,4.03-13.26,3.36c-0.49-0.95,11.36-5.41,18.86-15.73
		c4.96-6.83,6.63-14.33,7.19-20.16c-2.38,0.35-8.12,1.54-13.14,6.29c-8.05,7.62-7.59,18.11-7.49,19.7
		c-5.15,2.54-10.31,5.07-15.46,7.61c1.29-1.83,5.1-7.69,4.82-16.01c-0.26-7.71-3.87-13.01-5.26-14.86
		c-9.18,9.58-7.97,19.76-2.99,31.02c-18.06,8.31-39.03,9.19-56.86,1.49c-24.97-10.78-33.99-34.01-36.5-42.38
		c1.25-0.06,2.49-0.13,3.74-0.19c5.85-1.36,10.71-3.67,14.57-6.94c3.86-3.27,5.79-8.21,5.79-14.83c0-8.83-3.31-14.83-9.93-18.02
		c-6.62-3.18-13.92-4.78-21.89-4.78h-33.09v2.55h2.55c3.56,0,5.94,1.04,7.13,3.12c1.19,2.08,1.78,5.28,1.78,9.61v65.55
		c-3.4-0.36-6.03-1.43-7.87-3.22c-1.87-1.82-3.86-5.2-5.98-10.12l-28-68.12h-3.82L303,149.96h5.73l10.18-24.19h35.64l3.18,8.28
		c2.37,6.54,5.56,10.93,9.55,13.18c4.19,2.36,9.39,3.04,12.09,3.37c2.02,0.25,3.73,0.31,4.95,0.32c3.81-0.11,7.63-0.22,11.44-0.32
		v-38.84h8.75c2.13,8.29,11.54,36.92,42.11,50.13c2.93,1.26,14.37,6.1,30.12,6.17c18.67,0.09,32.68-6.53,39.31-10.24
		c1.72,1.82,3.47,2.94,5.01,3.65c8.18,3.75,19.38,0.05,28.93-8.62C546.57,151.75,540.84,150.39,533.76,150.98z M320.82,120.67
		l15.91-36.93L352,120.67H320.82z M395.76,72.29c3.39-0.85,6.45-1.27,9.16-1.27c2.8,0,5.75,0.66,8.85,1.97
		c3.1,1.32,5.75,3.33,7.96,6.05c2.21,2.72,3.31,6.11,3.31,10.19c0,4.07-1.08,7.47-3.25,10.19c-2.16,2.72-4.82,4.71-7.95,5.98
		c-3.14,1.27-6.11,1.91-8.91,1.91h-9.16V72.29z"/>
	<path class="st112" d="M471.72,71.8h-11.46c-10.61,0-15.91,4.88-15.91,14.64h-2.55V76.9c0-6.79,3.61-10.19,10.82-10.19h59.18v5.09
		h-28.64v78.94h-11.46V71.8z"/>
</g>
<circle class="st94" cx="246.02" cy="41.29" r="4.7"/>
</svg>
