<?xml version="1.0" encoding="utf-8"?>
<!-- Generator: Adobe Illustrator 24.2.3, SVG Export Plug-In . SVG Version: 6.00 Build 0)  -->
<svg version="1.1" id="Слой_1" xmlns="http://www.w3.org/2000/svg" xmlns:xlink="http://www.w3.org/1999/xlink" x="0px" y="0px"
	 viewBox="0 0 357 232" style="enable-background:new 0 0 357 232;" xml:space="preserve">
<style type="text/css">
	.st0{opacity:0.46;fill:#F2F2F2;}
	.st1{fill:#E7E9E8;}
	.st2{fill:#5538A5;}
	.st3{fill:#ECEDF1;}
	.st4{opacity:0.46;fill:#E9E9E3;}
	.st5{fill:none;stroke:#FFFFFF;stroke-width:2.0046;stroke-miterlimit:10;}
	.st6{fill:none;stroke:#FFFFFF;stroke-miterlimit:10;}
	.st7{fill:#FFFFFF;}
	.st8{fill:#F2F2F2;}
	.st9{opacity:0.39;fill:#F5A977;}
	.st10{fill:#FFBC2E;}
	.st11{fill:#F5A977;}
	.st12{fill:#EE7416;}
	.st13{fill:#F0840E;}
	.st14{fill:#FFA830;}
	.st15{fill:#EE783E;}
	.st16{fill:#F5AC95;}
	.st17{fill:#F8BE99;}
	.st18{fill:#F39D65;}
	.st19{fill:#F18E37;}
	.st20{fill:#ED750F;}
	.st21{fill:#F29154;}
	.st22{clip-path:url(#SVGID_4_);}
	.st23{fill:#A03C8B;}
	.st24{fill:#7392CB;}
	.st25{fill:#1B3660;}
	.st26{opacity:0.84;fill:#FFFFFF;}
	.st27{opacity:0.8;fill:#FFFFFF;}
	.st28{opacity:0.77;fill:#FFFFFF;}
	.st29{opacity:0.78;fill:#FFFFFF;}
	.st30{opacity:0.71;fill:#FFFFFF;}
	.st31{fill:#F1D3E7;}
	.st32{fill:#DCAFD1;}
	.st33{fill:#7344BA;}
	.st34{fill:#AE6BA9;}
	.st35{clip-path:url(#SVGID_6_);}
	.st36{fill:#23388B;}
	.st37{fill:none;stroke:#C95E8B;stroke-width:0.1156;stroke-linecap:round;stroke-miterlimit:9;}
	.st38{fill:#364380;}
	.st39{fill:#F6DDEC;}
	.st40{clip-path:url(#SVGID_10_);}
	.st41{fill:#7DA765;}
	.st42{fill:#007C37;}
	.st43{fill:#005E2D;}
	.st44{fill:#9F3AA0;}
	.st45{fill:#FF6B3E;}
	.st46{fill:#6843B7;}
	.st47{fill:#B2BC21;}
	.st48{fill:#00407D;}
	.st49{fill:#C8E7FA;}
	.st50{fill:#009BCC;}
	.st51{fill:#005D9E;}
	.st52{opacity:0.84;fill:#E7E11F;}
	.st53{fill:#1D1D1B;}
	.st54{opacity:0.8;fill:#F0840E;}
	.st55{opacity:0.77;fill:#FFA830;}
	.st56{opacity:0.78;fill:#009BCC;}
	.st57{opacity:0.78;fill:#F0840E;}
	.st58{opacity:0.78;fill:#FFBC2E;}
	.st59{opacity:0.71;fill:#005E2D;}
	.st60{clip-path:url(#SVGID_12_);fill:#E7E11F;}
	.st61{clip-path:url(#SVGID_12_);fill:#C8E7FA;}
	.st62{clip-path:url(#SVGID_12_);fill:#FF6B3E;}
	.st63{clip-path:url(#SVGID_14_);fill:#E7E11F;}
	.st64{clip-path:url(#SVGID_14_);fill:#C8E7FA;}
	.st65{clip-path:url(#SVGID_14_);fill:#FF6B3E;}
	.st66{clip-path:url(#SVGID_16_);fill:#E7E11F;}
	.st67{clip-path:url(#SVGID_16_);fill:#C8E7FA;}
	.st68{clip-path:url(#SVGID_16_);fill:#FF6B3E;}
	.st69{clip-path:url(#SVGID_10_);fill:none;stroke:#FFFFFF;stroke-width:1.7843;stroke-miterlimit:10;}
	.st70{clip-path:url(#SVGID_18_);fill:#E7E11F;}
	.st71{clip-path:url(#SVGID_18_);fill:#C8E7FA;}
	.st72{clip-path:url(#SVGID_18_);fill:#FF6B3E;}
	.st73{clip-path:url(#SVGID_20_);fill:#E7E11F;}
	.st74{clip-path:url(#SVGID_20_);fill:#C8E7FA;}
	.st75{clip-path:url(#SVGID_20_);fill:#FF6B3E;}
	.st76{clip-path:url(#SVGID_10_);fill:#C8E7FA;}
	.st77{clip-path:url(#SVGID_22_);fill:#E7E11F;}
	.st78{clip-path:url(#SVGID_22_);fill:#FF6B3E;}
	.st79{fill:#E7E11F;}
	.st80{opacity:0.5;fill:#432399;}
	.st81{fill:none;stroke:#FFFFFF;stroke-width:2;stroke-miterlimit:10;}
	.st82{fill:none;stroke:#FFFFFF;stroke-width:0.25;stroke-miterlimit:10;}
	.st83{fill:none;stroke:#FFFFFF;stroke-width:1.0062;stroke-miterlimit:10;}
	.st84{fill:none;stroke:#FFFFFF;stroke-width:0.8988;stroke-miterlimit:10;}
	.st85{fill:none;stroke:#FFFFFF;stroke-width:0.6474;stroke-miterlimit:10;}
	.st86{fill:none;stroke:#FFFFFF;stroke-width:1.7811;stroke-miterlimit:10;}
	.st87{fill:none;stroke:#3C3C3B;stroke-width:1.9961;stroke-miterlimit:10;}
	.st88{fill:none;stroke:#3C3C3B;stroke-width:1.9961;stroke-miterlimit:10;stroke-dasharray:8.0421,8.0421;}
	.st89{fill:none;stroke:#3C3C3B;stroke-width:1.9961;stroke-miterlimit:10;stroke-dasharray:8.9879,8.9879;}
	.st90{fill:#3C3C3B;}
	.st91{opacity:0.71;}
	.st92{opacity:0.84;}
	.st93{fill:#794A98;}
	.st94{fill:url(#SVGID_23_);}
	.st95{fill:none;stroke:#3C3C3B;stroke-width:1.9961;stroke-miterlimit:10;stroke-dasharray:7.984,7.984;}
	.st96{fill:none;stroke:#3C3C3B;stroke-width:1.9961;stroke-miterlimit:10;stroke-dasharray:9.1582,9.1582;}
	.st97{fill:none;stroke:#3C3C3B;stroke-width:1.9961;stroke-miterlimit:10;stroke-dasharray:8.0051,8.0051;}
	.st98{fill:url(#SVGID_24_);}
	.st99{fill:url(#SVGID_25_);}
	.st100{fill:url(#SVGID_26_);}
	.st101{fill:none;stroke:#FF6B3E;stroke-width:0.9625;stroke-miterlimit:10;}
	.st102{fill:url(#SVGID_27_);}
	.st103{fill:url(#SVGID_28_);}
	.st104{fill:url(#SVGID_29_);}
	.st105{fill:url(#SVGID_30_);}
	.st106{fill:url(#SVGID_31_);}
	.st107{fill:#C8951A;}
	.st108{opacity:0.82;}
	.st109{fill:#333333;}
</style>
<g>
	<path class="st53" d="M27.58,215.75c-1-0.52-1.71-1.47-2.13-2.84c-0.42-1.37-0.63-3.39-0.63-6.07v-42.36h7.97v42.36
		c0,2.68,0.37,4.67,1.1,5.96c0.74,1.29,2.21,1.93,4.42,1.93h1.34v1.81h-7.73C30.02,216.53,28.58,216.27,27.58,215.75z"/>
	<path class="st53" d="M69.11,216.69c-2.76-0.79-5.02-1.91-6.78-3.35c-1.76-1.45-2.64-3.12-2.64-5.01v-8.68h1.66
		c0.84,5.26,2.55,9.07,5.13,11.44c2.58,2.37,6.13,3.55,10.65,3.55c2.89,0,5.31-0.7,7.26-2.09c1.94-1.39,2.92-3.35,2.92-5.88
		c0-2.21-0.67-4.11-2.01-5.72c-1.34-1.6-3.51-3.27-6.51-5.01l-9.7-5.76c-3.42-2-5.84-4.05-7.26-6.15c-1.42-2.1-2.13-4.63-2.13-7.57
		c0-4.05,1.46-7.3,4.38-9.74c2.92-2.44,6.77-3.67,11.56-3.67c2.79,0,5.51,0.38,8.16,1.14c2.65,0.76,4.84,1.87,6.55,3.31
		c1.71,1.45,2.56,3.12,2.56,5.01v8.68h-1.66c-0.89-5.26-2.58-9.06-5.05-11.4c-2.47-2.34-5.92-3.51-10.33-3.51
		c-2.52,0-4.68,0.74-6.47,2.21c-1.79,1.47-2.68,3.37-2.68,5.68c0,2.1,0.66,3.85,1.97,5.25c1.31,1.39,3.52,3.04,6.63,4.93l9.7,5.76
		c3.58,2.1,6.13,4.12,7.65,6.03c1.52,1.92,2.29,4.3,2.29,7.14c0,4.47-1.54,8.02-4.61,10.65c-3.08,2.63-7.3,3.94-12.66,3.94
		C74.72,217.88,71.87,217.48,69.11,216.69z"/>
	<path class="st53" d="M120.97,174.18c0-2.68-0.37-4.67-1.1-5.96c-0.74-1.29-2.21-1.93-4.42-1.93h-1.34v-1.81h33.92
		c4.47,0,6.7,2.1,6.7,6.31v6.15h-1.81c0-6.15-3.29-9.23-9.86-9.23h-14.12v20.35H150v3.23h-21.06v22.01h13.72
		c3.42,0,6.14-0.67,8.16-2.01c2.02-1.34,3.67-3.59,4.93-6.74l1.74,0.47l-2.6,7.18c-0.53,1.42-1.26,2.5-2.21,3.23
		c-0.95,0.74-2.26,1.1-3.94,1.1h-27.77V174.18z"/>
	<path class="st53" d="M186.04,175.75v40.78h-3.31v-42.59c0-2.47-0.54-4.36-1.62-5.68c-1.08-1.31-2.91-1.97-5.48-1.97h-0.71v-1.81
		h5.21c2.58,0,4.75,0.39,6.51,1.18c1.76,0.79,3.27,1.97,4.54,3.55l27.45,33.6v-38.34h3.39v52.69h-2.13L186.04,175.75z"/>
	<path class="st53" d="M256.68,216.69c-2.76-0.79-5.02-1.91-6.78-3.35c-1.76-1.45-2.64-3.12-2.64-5.01v-8.68h1.66
		c0.84,5.26,2.55,9.07,5.13,11.44c2.58,2.37,6.13,3.55,10.65,3.55c2.89,0,5.31-0.7,7.26-2.09c1.94-1.39,2.92-3.35,2.92-5.88
		c0-2.21-0.67-4.11-2.01-5.72c-1.34-1.6-3.51-3.27-6.51-5.01l-9.7-5.76c-3.42-2-5.84-4.05-7.26-6.15c-1.42-2.1-2.13-4.63-2.13-7.57
		c0-4.05,1.46-7.3,4.38-9.74c2.92-2.44,6.77-3.67,11.56-3.67c2.79,0,5.51,0.38,8.16,1.14c2.65,0.76,4.84,1.87,6.55,3.31
		c1.71,1.45,2.56,3.12,2.56,5.01v8.68h-1.66c-0.89-5.26-2.58-9.06-5.05-11.4c-2.47-2.34-5.92-3.51-10.33-3.51
		c-2.52,0-4.68,0.74-6.47,2.21c-1.79,1.47-2.68,3.37-2.68,5.68c0,2.1,0.66,3.85,1.97,5.25c1.31,1.39,3.52,3.04,6.63,4.93l9.7,5.76
		c3.58,2.1,6.13,4.12,7.65,6.03c1.52,1.92,2.29,4.3,2.29,7.14c0,4.47-1.54,8.02-4.61,10.65c-3.08,2.63-7.3,3.94-12.66,3.94
		C262.29,217.88,259.44,217.48,256.68,216.69z"/>
	<path class="st53" d="M308.54,174.18c0-2.68-0.37-4.67-1.1-5.96c-0.74-1.29-2.21-1.93-4.42-1.93h-1.34v-1.81h33.92
		c4.47,0,6.7,2.1,6.7,6.31v6.15h-1.81c0-6.15-3.29-9.23-9.86-9.23h-14.12v20.35h21.06v3.23h-21.06v22.01h13.73
		c3.42,0,6.14-0.67,8.16-2.01c2.02-1.34,3.67-3.59,4.93-6.74l1.74,0.47l-2.6,7.18c-0.53,1.42-1.26,2.5-2.21,3.23
		c-0.95,0.74-2.26,1.1-3.94,1.1h-27.77V174.18z"/>
	<path class="st53" d="M40.57,140.84c-0.7,3.68-4.06,4.65-8.26,8.88c-1.56,1.57-3.71,4.07-5.7,7.77c0.03-1.5,0.51-21.64,7.25-23.19
		c1.15-0.26,3.89-0.32,5.52,1.4C41.15,137.57,40.64,140.5,40.57,140.84z"/>
	<g>
		<path class="st53" d="M188.5,102.1c-15.97,0.12-29.87-11.35-32.87-24.68c-4.38-19.51,16.89-36.64,16.5-36.31
			c-0.55,0.47-12.91,11.51-9.96,27.07c2.25,11.87,12.7,22.62,26.27,22.66c13.51,0.03,24.16-10.57,26.39-22.6
			c1.85-9.97-2.18-20.39-10.43-27.16c13.13,7.2,19.83,22.21,16.43,36.31C217.14,92.77,202.67,101.99,188.5,102.1z"/>
	</g>
	<g>
		<rect x="188.56" y="102.1" class="st53" width="0.52" height="22.86"/>
	</g>
	<g>
		
			<rect x="210.25" y="105.39" transform="matrix(0.9064 -0.4223 0.4223 0.9064 -27.8428 99.4313)" class="st53" width="0.52" height="14.34"/>
	</g>
	<g>
		
			<rect x="158.46" y="112.38" transform="matrix(0.422 -0.9066 0.9066 0.422 -6.391 215.2623)" class="st53" width="14.34" height="0.52"/>
	</g>
	<g>
		
			<rect x="235.13" y="74.34" transform="matrix(0.2813 -0.9596 0.9596 0.2813 90.9444 284.456)" class="st53" width="0.52" height="14.34"/>
	</g>
	<g>
		
			<rect x="228.74" y="59.44" transform="matrix(0.9886 -0.1504 0.1504 0.9886 -6.2963 36.1699)" class="st53" width="14.34" height="0.52"/>
	</g>
	<g>
		
			<rect x="225.66" y="93.63" transform="matrix(0.6603 -0.751 0.751 0.6603 1.0436 203.9186)" class="st53" width="0.52" height="14.34"/>
	</g>
	<g>
		
			<rect x="133.81" y="81.25" transform="matrix(0.9636 -0.2675 0.2675 0.9636 -16.6658 40.6825)" class="st53" width="14.34" height="0.52"/>
	</g>
	<g>
		
			<rect x="140.56" y="52.51" transform="matrix(0.1642 -0.9864 0.9864 0.1642 58.8294 188.7935)" class="st53" width="0.52" height="14.34"/>
	</g>
	<g>
		
			<rect x="143.44" y="100.4" transform="matrix(0.7606 -0.6493 0.6493 0.7606 -29.292 121.8858)" class="st53" width="14.34" height="0.52"/>
	</g>
	<g>
		<rect x="188.31" y="14.02" class="st53" width="0.52" height="14.34"/>
	</g>
	<g>
		
			<rect x="166.94" y="18.64" transform="matrix(0.9064 -0.4223 0.4223 0.9064 4.7405 73.0266)" class="st53" width="0.52" height="14.34"/>
	</g>
	<g>
		
			<rect x="202.4" y="25.56" transform="matrix(0.422 -0.9066 0.9066 0.422 97.7211 204.92)" class="st53" width="14.34" height="0.52"/>
	</g>
	<g>
		
			<rect x="149.62" y="32.78" transform="matrix(0.6603 -0.751 0.751 0.6603 20.9162 126.1386)" class="st53" width="0.52" height="14.34"/>
	</g>
	<g>
		
			<rect x="219.5" y="40.17" transform="matrix(0.7606 -0.6493 0.6493 0.7606 28.0203 156.851)" class="st53" width="14.34" height="0.52"/>
	</g>
	<g>
		
			<rect x="228.56" y="85.97" transform="matrix(0.4893 -0.8721 0.8721 0.4893 38.5469 245.4213)" class="st53" width="0.52" height="7.66"/>
	</g>
	<g>
		
			<rect x="233.43" y="66.58" transform="matrix(0.0752 -0.9972 0.9972 0.0752 145.9168 298.1382)" class="st53" width="0.52" height="7.66"/>
	</g>
	<g>
		
			<rect x="216.77" y="101.22" transform="matrix(0.8118 -0.5839 0.5839 0.8118 -20.4984 146.5009)" class="st53" width="0.52" height="7.66"/>
	</g>
	<g>
		
			<rect x="139.09" y="69.96" transform="matrix(0.999 -0.0449 0.0449 0.999 -3.0103 6.4909)" class="st53" width="7.66" height="0.52"/>
	</g>
	<g>
		
			<rect x="146.91" y="46.74" transform="matrix(0.3811 -0.9245 0.9245 0.3811 44.3271 167.3549)" class="st53" width="0.52" height="7.66"/>
	</g>
	<g>
		
			<rect x="144.07" y="89.45" transform="matrix(0.8865 -0.4628 0.4628 0.8865 -24.7279 78.6249)" class="st53" width="7.66" height="0.52"/>
	</g>
	<g>
		
			<rect x="194.85" y="25.35" transform="matrix(0.2236 -0.9747 0.9747 0.2236 129.2871 213.5264)" class="st53" width="7.66" height="0.52"/>
	</g>
	<g>
		
			<rect x="178.03" y="21.78" transform="matrix(0.978 -0.2084 0.2084 0.978 -1.4219 37.7171)" class="st53" width="0.52" height="7.66"/>
	</g>
	<g>
		
			<rect x="213.08" y="34.32" transform="matrix(0.6143 -0.7891 0.7891 0.6143 56.3819 184.5002)" class="st53" width="7.66" height="0.52"/>
	</g>
	<g>
		
			<rect x="159.96" y="30.55" transform="matrix(0.8118 -0.5839 0.5839 0.8118 10.0801 100.027)" class="st53" width="0.52" height="7.66"/>
	</g>
	<g>
		
			<rect x="225.65" y="50.73" transform="matrix(0.8865 -0.4628 0.4628 0.8865 2.4506 111.9814)" class="st53" width="7.66" height="0.52"/>
	</g>
	<g>
		
			<rect x="156.19" y="105.12" transform="matrix(0.5926 -0.8055 0.8055 0.5926 -19.6966 171.8204)" class="st53" width="7.66" height="0.52"/>
	</g>
	<g>
		<circle class="st53" cx="177.01" cy="19.58" r="0.93"/>
	</g>
	<g>
		<circle class="st53" cx="199.92" cy="19.45" r="0.93"/>
	</g>
	<g>
		<circle class="st53" cx="220.87" cy="29.88" r="0.93"/>
	</g>
	<g>
		<circle class="st53" cx="234.98" cy="48.02" r="0.93"/>
	</g>
	<g>
		<circle class="st53" cx="240.17" cy="70.69" r="0.93"/>
	</g>
	<g>
		<circle class="st53" cx="234.24" cy="92.6" r="0.93"/>
	</g>
	<g>
		<circle class="st53" cx="220.77" cy="110.33" r="0.93"/>
	</g>
	<g>
		<circle class="st53" cx="156.1" cy="110.36" r="0.93"/>
	</g>
	<g>
		<circle class="st53" cx="141.91" cy="92.73" r="0.93"/>
	</g>
	<g>
		<circle class="st53" cx="136.44" cy="70.4" r="0.93"/>
	</g>
	<g>
		<circle class="st53" cx="141.2" cy="48.18" r="0.93"/>
	</g>
	<g>
		<circle class="st53" cx="156.13" cy="29.33" r="0.93"/>
	</g>
	<g>
		<path class="st53" d="M178.03,117.82l-1.21-0.02c0.08-6.31,4.97-11.51,11.13-11.83c3.07-0.15,6.18,0.99,8.51,3.16
			c2.43,2.26,3.8,5.32,3.87,8.62l-1.21,0.02c-0.06-2.97-1.29-5.72-3.48-7.76c-2.09-1.95-4.87-2.98-7.63-2.84
			C182.49,107.47,178.1,112.14,178.03,117.82z"/>
	</g>
	<path class="st53" d="M188.82,125.4c-1.24-1.75-2.48-3.51-3.72-5.26c1.24-2.33,2.48-4.66,3.72-6.99c1.34,2.33,2.68,4.66,4.02,6.99
		C191.5,121.89,190.16,123.65,188.82,125.4z"/>
	<g>
		<path class="st53" d="M188.82,46.86c-5.58-1.91-11.17-3.81-16.75-5.72c5.58-1.96,11.17-3.92,16.75-5.88
			c5.2,1.94,10.4,3.88,15.59,5.82C199.22,43.01,194.02,44.94,188.82,46.86z M173.76,41.13c5.02,1.58,10.04,3.17,15.06,4.75
			c4.59-1.6,9.18-3.2,13.77-4.8c-4.59-1.67-9.18-3.34-13.77-5C183.8,37.77,178.78,39.45,173.76,41.13z"/>
	</g>
	<path class="st53" d="M184.25,41.14c1.51,0.53,3.03,1.06,4.54,1.58c1.45-0.53,2.9-1.06,4.35-1.58c-1.44-0.6-2.88-1.21-4.32-1.81
		C187.3,39.93,185.77,40.54,184.25,41.14z"/>
	<circle class="st53" cx="188.82" cy="84.08" r="6.8"/>
	<g>
		<path class="st53" d="M188.82,75.02c-2.6,0-4.71-2.11-4.71-4.71c0-2.6,2.11-4.71,4.71-4.71c2.6,0,4.71,2.11,4.71,4.71
			C193.53,72.91,191.42,75.02,188.82,75.02z M188.82,66.83c-1.92,0-3.48,1.56-3.48,3.48c0,1.92,1.56,3.48,3.48,3.48
			c1.92,0,3.48-1.56,3.48-3.48C192.3,68.39,190.74,66.83,188.82,66.83z"/>
	</g>
	<g>
		<path class="st53" d="M188.82,62.82c-1.42,0-2.57-1.15-2.57-2.57c0-1.42,1.15-2.57,2.57-2.57s2.57,1.15,2.57,2.57
			C191.39,61.66,190.24,62.82,188.82,62.82z M188.82,58.34c-1.05,0-1.9,0.85-1.9,1.9s0.85,1.9,1.9,1.9c1.05,0,1.9-0.85,1.9-1.9
			S189.87,58.34,188.82,58.34z"/>
	</g>
</g>
</svg>
