<svg version="1.1" id="Слой_1" xmlns="http://www.w3.org/2000/svg" x="0" y="0" viewBox="0 0 555 208" xml:space="preserve"><style>.st111{opacity:.81}.st112{fill:#575756}</style><path d="M365.45 85.05c-4.05-14.94-12.68-26.09-25.69-33.98-18.26-11.09-37.38-16.7-58.28-8.31-11.75-14.16-33.97-18.41-44.43-6.49-6.61 7.53-14.31 9.19-22.63 11.6-8.09 2.35-16.16 4.81-24.07 7.68-4.43 1.61-8.5 4.16-12.74 6.28 1.24 1.17 1.97 1.35 2.55 1.13 2.4-.92 4.75-1.95 7.11-2.97 15.66-6.8 32-10.14 49.23-9.82 8.12.15 14.03 3.01 17.39 10.62 3.93 8.92 6.59 13.06 8.62 18.95.68 1.97 7.19 20.2 21.68 33.48 3.48 3.19 8.8 7.34 16.37 10.97-.15-.07-.31-.13-.45-.2-2.81 6.11-6.38 10.13-8.79 12.45-4.47 4.3-8.9 6.53-12.15 8.17a60.72 60.72 0 01-9.49 3.82c1.31.41 3.47.88 6.1.54 4.23-.55 7.04-2.88 8.13-3.9-.44 1.3-.89 2.6-1.33 3.9 4.04-2.72 9.06-6.71 13.92-12.37 3.3-3.84 5.78-7.58 7.64-10.84-.06-.03-.13-.05-.19-.08 3.44 1.38 7.81 2.91 13 4.16 3.38.82 6.46 1.66 9.48 2.18-.72 3.55-2.15 6.03-3.1 7.42-1.91 2.81-4.07 4.38-5.99 5.79-2.5 1.83-4.84 3-6.54 3.72 1.45.18 4.4.34 7.79-.93 3.33-1.25 5.41-3.27 6.39-4.34l-1.08 5.29c3.04-2.28 4.26-4.57 4.82-6.07.41-1.09.74-3.07 1.4-6.98.24-1.41.43-2.59.56-3.43 1.51.07 3.02.01 4.58-.22 25.81-3.77 36.98-22.19 30.19-47.22zm-36.98 47.26c-.32-.03-.59-.09-.89-.13.31.04.62.1.93.14-.01-.01-.02-.01-.04-.01z" opacity=".28" fill="#575756"/><g class="st111"><path class="st112" d="M211.9 195.58c1.02.63 2.52 1.16 4.1 1.16 2.33 0 3.7-1.23 3.7-3.02 0-1.66-.94-2.6-3.33-3.53-2.89-1.02-4.68-2.52-4.68-5.02 0-2.76 2.29-4.81 5.73-4.81 1.81 0 3.12.43 3.91.87l-.62 1.86c-.58-.31-1.77-.84-3.36-.84-2.42 0-3.34 1.45-3.34 2.65 0 1.65 1.08 2.47 3.52 3.41 3 1.16 4.52 2.6 4.52 5.21 0 2.73-2.02 5.09-6.2 5.09-1.7 0-3.57-.5-4.51-1.13l.56-1.9zm26.73-12.97h-5.38v-1.94h13.11v1.94h-5.41v15.77h-2.31v-15.77zm22.09-1.95v10.49c0 3.97 1.76 5.65 4.12 5.65 2.62 0 4.31-1.74 4.31-5.65v-10.49h2.31v10.32c0 5.44-2.86 7.68-6.7 7.68-3.62 0-6.35-2.08-6.35-7.57v-10.43h2.31zm24.81.24c1.4-.21 3.05-.36 4.87-.36 3.28 0 5.62.76 7.16 2.21 1.58 1.44 2.5 3.49 2.5 6.36 0 2.89-.89 5.25-2.55 6.88-1.65 1.65-4.38 2.55-7.82 2.55-1.63 0-3-.08-4.16-.21V180.9zm2.29 15.66c.57.11 1.42.13 2.3.13 4.89 0 7.54-2.73 7.54-7.51.03-4.18-2.33-6.83-7.17-6.83-1.18 0-2.07.11-2.67.23v13.98zm27.61-15.9v17.71h-2.29v-17.71h2.29zm29.22 8.67c0 6.09-3.7 9.33-8.22 9.33-4.67 0-7.96-3.63-7.96-8.99 0-5.62 3.5-9.3 8.22-9.3 4.84 0 7.96 3.71 7.96 8.96zm-13.73.29c0 3.78 2.05 7.17 5.65 7.17 3.62 0 5.67-3.33 5.67-7.36 0-3.52-1.84-7.2-5.65-7.2-3.78.01-5.67 3.5-5.67 7.39z"/></g><g class="st111"><path class="st112" d="M77.18 146.36c-4.33-2.16-9.29-6.18-14.89-12.03l-26.73-28.01v42.02H24.11V79.57c0-4.33-.59-7.53-1.78-9.61-1.19-2.08-3.56-3.12-7.13-3.12h-2.55v-2.55H24.1c3.14 0 5.49.4 7.06 1.21 1.57.81 2.69 2.27 3.37 4.39.68 2.12 1.02 5.35 1.02 9.68v24.83l26.73-26.74 2.55-2.67c2.38-2.46 4.37-4.39 5.98-5.79 1.61-1.4 3.52-2.57 5.73-3.5 2.21-.93 4.67-1.4 7.38-1.4h6.36v3.18c-3.56 0-6.66.62-9.29 1.85-2.63 1.23-5.69 3.59-9.16 7.07l-24.82 24.83 29.27 30.56c3.73 3.82 7.51 7.02 11.33 9.61 3.82 2.59 7.26 4.1 10.31 4.52v2.42c-2.55.85-5.3 1.27-8.27 1.27-3.98-.01-8.14-1.09-12.47-3.25zm147.55-80.27l-22.45 56.13-14.68-36.27c-3.22-8.06-7.22-13.67-12-16.84s-10.27-4.75-16.49-4.75c-1.15 0-2.3.06-3.45.17-1.15.12-2.02.17-2.59.17v3.45c3.8.23 6.93 1.58 9.41 4.06 2.47 2.48 5.09 6.77 7.86 12.87l-14.68 37.14L141 85.95c-3.22-8.06-7.22-13.67-12-16.84-4.43-2.94-9.49-4.5-15.16-4.71v-.14h-11.46v69.26c0 4.36.34 7.61 1.02 9.75.68 2.14 1.8 3.61 3.37 4.42s3.92 1.22 7.06 1.22h11.46v-2.57h-2.55c-3.56 0-5.94-1.05-7.13-3.14-1.19-2.09-1.78-5.32-1.78-9.68V70.24c1.05.6 2.04 1.28 2.91 2.15 2.59 2.59 5.21 7.11 7.86 13.56l25.03 63.04h3.45l21.58-53.54 21.58 53.54h3.45l33.67-82.91h-8.63zm18.94 83.18c-1.57-.81-2.7-2.28-3.37-4.42-.68-2.13-1.02-5.38-1.02-9.74V65.92h11.46v69.19c0 4.36.59 7.58 1.78 9.67s3.56 3.14 7.13 3.14h2.55v2.56h-11.46c-3.14.01-5.5-.4-7.07-1.21zM128.26 33.13c-.01 2.38-.37 9.45-5.48 15.95-7.14 9.09-17.84 9.79-19.52 9.88 4.08-14.31 9.85-25 25-25.83zm405.5 117.85c-7.53.63-12.91 4.03-13.26 3.36-.49-.95 11.36-5.41 18.86-15.73 4.96-6.83 6.63-14.33 7.19-20.16-2.38.35-8.12 1.54-13.14 6.29-8.05 7.62-7.59 18.11-7.49 19.7-5.15 2.54-10.31 5.07-15.46 7.61 1.29-1.83 5.1-7.69 4.82-16.01-.26-7.71-3.87-13.01-5.26-14.86-9.18 9.58-7.97 19.76-2.99 31.02-18.06 8.31-39.03 9.19-56.86 1.49-24.97-10.78-33.99-34.01-36.5-42.38 1.25-.06 2.49-.13 3.74-.19 5.85-1.36 10.71-3.67 14.57-6.94 3.86-3.27 5.79-8.21 5.79-14.83 0-8.83-3.31-14.83-9.93-18.02-6.62-3.18-13.92-4.78-21.89-4.78h-33.09v2.55h2.55c3.56 0 5.94 1.04 7.13 3.12 1.19 2.08 1.78 5.28 1.78 9.61v65.55c-3.4-.36-6.03-1.43-7.87-3.22-1.87-1.82-3.86-5.2-5.98-10.12l-28-68.12h-3.82L303 149.96h5.73l10.18-24.19h35.64l3.18 8.28c2.37 6.54 5.56 10.93 9.55 13.18 4.19 2.36 9.39 3.04 12.09 3.37 2.02.25 3.73.31 4.95.32 3.81-.11 7.63-.22 11.44-.32v-38.84h8.75c2.13 8.29 11.54 36.92 42.11 50.13 2.93 1.26 14.37 6.1 30.12 6.17 18.67.09 32.68-6.53 39.31-10.24 1.72 1.82 3.47 2.94 5.01 3.65 8.18 3.75 19.38.05 28.93-8.62-3.42-1.1-9.15-2.46-16.23-1.87zm-212.94-30.31l15.91-36.93L352 120.67h-31.18zm74.94-48.38c3.39-.85 6.45-1.27 9.16-1.27 2.8 0 5.75.66 8.85 1.97 3.1 1.32 5.75 3.33 7.96 6.05 2.21 2.72 3.31 6.11 3.31 10.19 0 4.07-1.08 7.47-3.25 10.19-2.16 2.72-4.82 4.71-7.95 5.98-3.14 1.27-6.11 1.91-8.91 1.91h-9.16V72.29z"/><path class="st112" d="M471.72 71.8h-11.46c-10.61 0-15.91 4.88-15.91 14.64h-2.55V76.9c0-6.79 3.61-10.19 10.82-10.19h59.18v5.09h-28.64v78.94H471.7V71.8z"/></g><circle cx="246.02" cy="41.29" r="4.7" opacity=".81" fill="#575756"/></svg>