<svg id="Слой_1" data-name="Слой 1" xmlns="http://www.w3.org/2000/svg" viewBox="0 0 1004 707"><path d="M965.13 519.52L704.07 259.91 965.13.3H704.07L573.55 130.11 443 259.91 312.5 389.72 182 259.91l130.5-129.8V.3H182L52.22 121.21l-.78 268.51L182 519.52h261l130.53-129.8 130.52 129.8z" fill="#e20613"/><path d="M443 .3l.12 193.21L573.55 56V.3M45.36 678.94q-14.37 0-23.86-8.68T12 648q0-13.61 9.41-22.29T45.27 617a34.64 34.64 0 0115.49 3.4v15.06a28.5 28.5 0 00-15.31-4.34 17.65 17.65 0 00-12.58 4.76 15.92 15.92 0 00-5 12.08A15.72 15.72 0 0033 660.14a18.89 18.89 0 0013 4.67q9.42 0 15.74-4.76v15.14a35.62 35.62 0 01-16.38 3.75zm32.25-.68a14.25 14.25 0 01-6.59-1.2V663a10.4 10.4 0 004.54 1.1q4.44 0 5.73-5.44 1.45-5.54 1.54-22.54L83 618.2h44.74v59.54h-15.4v-46.1H98l-.17 6.55q-.69 23.89-4.62 31.13-4.9 8.94-15.6 8.94zm78.01.68a22.4 22.4 0 01-10.69-2.3v-13.1a16.09 16.09 0 007.87 1.87 9 9 0 005.22-1.36 13.63 13.63 0 003.84-4.93l-22.49-40.92h17l13.09 25.86 11.46-25.86h16.34l-22 46.44q-4.18 9-10.35 11.91a22 22 0 01-9.29 2.39zm64.75-1.2h-20l23.95-30.62-20.88-28.92h19l16.68 23.9v-23.9h15.38v23.9l16.77-23.9h18.9l-20.87 28.92 23.95 30.62h-20l-18.75-24.32v24.32h-15.39v-24.32zm110.09 0h-26.6V618.2h44.74v13.1h-29.26v6.46h11.12q10.69 0 17 5.62a18.44 18.44 0 016.33 14.46 18.2 18.2 0 01-6.33 14.38q-6.31 5.52-17 5.52zm-11.12-28v14.88h9.93a10.19 10.19 0 006.54-1.95 6.52 6.52 0 002.44-5.36 6.85 6.85 0 00-2.44-5.53 9.88 9.88 0 00-6.54-2zm59.37 28h-16.26l25.15-59.88h14.8l25.15 59.88H411l-5-12.58h-22.25zM394.87 637l-6.24 15.91h12.49zM481 677.74h-15.4V618.2H481v22.71l19.42-22.71h18.48l-23.19 27.39 27.46 32.15h-18.72L481 651.29zm97.87-7.82q-9 9-22.58 9t-22.59-9a31.32 31.32 0 010-43.9q9-9 22.59-9t22.58 9a31.32 31.32 0 010 43.9zM545 660.05a15.67 15.67 0 0022.5 0 18.34 18.34 0 000-24.16 15.67 15.67 0 00-22.5 0 18.65 18.65 0 000 24.16zm72.79 17.69h-15.4V618.2h15.4v21.18h22.58V618.2h15.4v59.54h-15.4V653h-22.58zm84.43 0h-15.4v-46.1h-18V618.2h51.41v13.44h-18zm46.53 0h-15.4V618.2H760q10.1 0 15.91 5.19a17.08 17.08 0 015.9 13.44 17.31 17.31 0 01-5.9 13.52q-5.82 5.19-15.91 5.19h-11.25zm0-46.61V643h10.18a8.42 8.42 0 005.34-1.57 5.25 5.25 0 002-4.38 5.18 5.18 0 00-2-4.34 8.59 8.59 0 00-5.39-1.53zm98.03 38.79q-9 9-22.59 9t-22.58-9a31.32 31.32 0 010-43.9q9-9 22.58-9t22.59 9a31.32 31.32 0 010 43.9zm-33.88-9.87a15.67 15.67 0 0022.5 0 18.37 18.37 0 000-24.16 15.67 15.67 0 00-22.5 0 18.62 18.62 0 000 24.16zm57.4 18.21a14.25 14.25 0 01-6.59-1.2V663a10.4 10.4 0 004.54 1.1q4.44 0 5.73-5.44 1.46-5.54 1.54-22.54l.17-17.95h44.74v59.54H905v-46.1h-14.34l-.17 6.55q-.69 23.89-4.62 31.13-4.87 8.97-15.57 8.97zm78.95-.52h-17.71l18.4-24.41a18.1 18.1 0 01-8.56-6.55 17.45 17.45 0 01-3.08-10.21 16.71 16.71 0 015.82-13.18q5.82-5.19 15.74-5.19H988v59.54h-15.4V655h-6.33zm11.46-35.21h11.89v-11.4h-11.89a7.42 7.42 0 00-5 1.57 5.26 5.26 0 00-1.84 4.21 5 5 0 001.84 4.13 7.72 7.72 0 005 1.49z" fill="#3c3c3b"/></svg>