<svg id="Слой_1" data-name="Слой 1" xmlns="http://www.w3.org/2000/svg" viewBox="0 0 229 210"><defs><style>.cls-1{fill:#7da765;}.cls-2{fill:#007c37;}.cls-24,.cls-3{fill:#005e2d;}.cls-4{fill:#a03c8b;}.cls-5{fill:#9f3aa0;}.cls-6{fill:#ff6b3e;}.cls-7{fill:#6843b7;}.cls-8{fill:#b2bc21;}.cls-9{fill:#00407d;}.cls-10{fill:#c8e7fa;}.cls-11,.cls-21{fill:#009bcc;}.cls-12{fill:#005d9e;}.cls-13{fill:#e7e11f;opacity:0.84;}.cls-14{fill:#1d1d1b;}.cls-15{fill:#fff;}.cls-16,.cls-17,.cls-22{fill:#f0840e;}.cls-17{opacity:0.8;}.cls-18{fill:#f5a977;}.cls-19{fill:#ffa830;opacity:0.77;}.cls-20,.cls-23{fill:#ffbc2e;}.cls-21,.cls-22,.cls-23{opacity:0.78;}.cls-24{opacity:0.71;}</style></defs><rect class="cls-1" x="92.67" y="118.29" width="18.64" height="30.6"/><rect class="cls-2" x="92.67" y="148.89" width="18.64" height="30.6"/><rect class="cls-3" x="92.67" y="179.49" width="18.64" height="30.6"/><rect class="cls-4" x="30.38" y="5.97" width="18.64" height="26.13"/><rect class="cls-5" x="30.38" y="32.11" width="18.64" height="78.35"/><rect class="cls-6" x="65.5" y="84.32" width="17.8" height="26.13"/><rect class="cls-7" x="31.18" y="-31.25" width="18.64" height="80.88" transform="translate(49.69 -31.3) rotate(90)"/><rect class="cls-8" x="104.88" y="18.8" width="18.97" height="91.71"/><rect class="cls-9" x="164.87" y="19.04" width="18.64" height="91.45"/><rect class="cls-10" x="187.26" y="48.14" width="18.64" height="26.13" transform="translate(257.79 -135.36) rotate(90)"/><rect class="cls-11" x="206.95" y="15.2" width="18.64" height="26.13" transform="translate(244.54 -188) rotate(90)"/><rect class="cls-12" x="174.71" y="9.1" width="18.64" height="38.34" transform="translate(212.3 -155.76) rotate(90)"/><path class="cls-13" d="M146.53,18.64a36.2,36.2,0,1,0,36.2,36.2A36.23,36.23,0,0,0,146.53,18.64Zm18.22,36.2a18.22,18.22,0,1,1-18.22-18.21A18.24,18.24,0,0,1,164.75,54.84Z"/><rect class="cls-14" x="192.32" y="118.55" width="35.99" height="91.56"/><path class="cls-15" d="M220.12,190.83a8.72,8.72,0,0,1-2.83,6.81,10.22,10.22,0,0,1-7,2.41,10.1,10.1,0,0,1-7-2.49,8.65,8.65,0,0,1-2.91-6.78,9.73,9.73,0,0,1,.24-2.3,6.44,6.44,0,0,1,.9-2.17,2.27,2.27,0,0,1,1.85-1.19,1.88,1.88,0,0,1,1.34.53,1.69,1.69,0,0,1,.57,1.29,4.61,4.61,0,0,1-.39,1.64,6.07,6.07,0,0,0-.38,2.17,4,4,0,0,0,1.88,3.55,7,7,0,0,0,4,1.09,6.37,6.37,0,0,0,3.94-1.14,4.29,4.29,0,0,0,1.69-3.63,6.78,6.78,0,0,0-.47-2.3,6.32,6.32,0,0,1-.46-1.7,1.58,1.58,0,0,1,.58-1.24,1.93,1.93,0,0,1,2.5-.08C219.46,186.27,220.12,188.12,220.12,190.83Z"/><path class="cls-15" d="M203.46,181.7c-2.08,0-3.12-.73-3.12-2.2s1-2.19,3.13-2.19h12.38v-3.74c0-2.08.68-3.12,2-3.12s2,1,2,3.12v5.14a3.62,3.62,0,0,1-.57,2.33,2.87,2.87,0,0,1-2.21.66Z"/><path class="cls-15" d="M211.26,168.25h-7.8c-2.08,0-3.12-.73-3.12-2.2s1-2.19,3.12-2.19h7.29q5.13,0,5.13-3.9t-5.13-3.89h-7.29q-3.12,0-3.12-2.19c0-1.47,1-2.2,3.12-2.2h7.8a9.25,9.25,0,0,1,6.4,2.09,9,9,0,0,1,0,12.39A9.25,9.25,0,0,1,211.26,168.25Z"/><path class="cls-15" d="M219.91,143.82a3.62,3.62,0,0,1-.57,2.33,2.87,2.87,0,0,1-2.21.66H203.68a3.46,3.46,0,0,1-2.41-.66,3.26,3.26,0,0,1-.69-2.39v-3.6a8.63,8.63,0,0,1,1.08-4.45,4.11,4.11,0,0,1,3.74-2.22q3.15,0,4.26,2.28h.08a4.6,4.6,0,0,1,1.55-2.44,4.69,4.69,0,0,1,2.79-.74,5.24,5.24,0,0,1,4.47,2,7.81,7.81,0,0,1,1.36,4.84Zm-15.57-1.41h3.78v-1.9a3.82,3.82,0,0,0-.31-1.83,1.69,1.69,0,0,0-1.59-.74c-1.26,0-1.88.85-1.88,2.57Zm7.23,0h4.55v-2.2a4.54,4.54,0,0,0-.37-2.09,1.89,1.89,0,0,0-1.8-.9,2.1,2.1,0,0,0-2,.88,4.6,4.6,0,0,0-.37,2.19Z"/><rect class="cls-16" x="65.5" y="58.18" width="17.8" height="26.13"/><rect class="cls-17" x="93.66" y="21.58" width="18.64" height="26.45" transform="translate(50.22 -60.24) rotate(42.29)"/><rect class="cls-18" x="75.97" y="41.18" width="18.64" height="26.13" transform="translate(58.7 -43.27) rotate(42.29)"/><rect class="cls-19" x="37.29" y="21.37" width="18.64" height="27.74" transform="translate(104.79 29.94) rotate(137.71)"/><rect class="cls-20" x="54.87" y="42.31" width="18.64" height="24.53" transform="translate(148.4 51.74) rotate(137.71)"/><rect class="cls-10" x="206.95" y="88.12" width="18.64" height="26.13" transform="translate(317.46 -115.07) rotate(90)"/><rect class="cls-21" x="174.72" y="82.03" width="18.64" height="38.33" transform="translate(285.23 -82.84) rotate(90)"/><rect class="cls-6" x="119.62" y="118.6" width="18.64" height="91.45"/><rect class="cls-18" x="142.01" y="147.71" width="18.64" height="26.13" transform="translate(312.1 9.45) rotate(90)"/><rect class="cls-19" x="161.7" y="114.76" width="18.64" height="26.13" transform="translate(298.85 -43.18) rotate(90)"/><rect class="cls-22" x="129.46" y="108.66" width="18.64" height="38.34" transform="translate(266.61 -10.94) rotate(90)"/><rect class="cls-18" x="161.7" y="187.69" width="18.64" height="26.13" transform="translate(371.77 29.74) rotate(90)"/><rect class="cls-23" x="129.47" y="181.59" width="18.64" height="38.33" transform="translate(339.54 61.97) rotate(90)"/><rect class="cls-1" x="30.38" y="118.29" width="18.64" height="30.51"/><rect class="cls-2" x="30.38" y="148.8" width="18.64" height="30.51"/><rect class="cls-3" x="30.38" y="179.31" width="18.64" height="30.51"/><path class="cls-24" d="M91.51,118.38v2.91a20.73,20.73,0,0,1-41.45-.06v-2.94H30.38l.05,3A40.1,40.1,0,0,0,42.28,149.8c2.77,2.76,13,11.78,28.24,11.78h.28c22-.15,33.78-19,34.28-19.78a41.79,41.79,0,0,0,6-20.47l.1-3Z"/></svg>