<svg version="1.1" id="Слой_1" xmlns="http://www.w3.org/2000/svg" x="0" y="0" viewBox="0 0 357 232" xml:space="preserve"><style>.st53{fill:#1d1d1b}</style><path class="st53" d="M27.58 215.75c-1-.52-1.71-1.47-2.13-2.84-.42-1.37-.63-3.39-.63-6.07v-42.36h7.97v42.36c0 2.68.37 4.67 1.1 5.96.74 1.29 2.21 1.93 4.42 1.93h1.34v1.81h-7.73c-1.9-.01-3.34-.27-4.34-.79zm41.53.94c-2.76-.79-5.02-1.91-6.78-3.35-1.76-1.45-2.64-3.12-2.64-5.01v-8.68h1.66c.84 5.26 2.55 9.07 5.13 11.44 2.58 2.37 6.13 3.55 10.65 3.55 2.89 0 5.31-.7 7.26-2.09 1.94-1.39 2.92-3.35 2.92-5.88 0-2.21-.67-4.11-2.01-5.72-1.34-1.6-3.51-3.27-6.51-5.01l-9.7-5.76c-3.42-2-5.84-4.05-7.26-6.15-1.42-2.1-2.13-4.63-2.13-7.57 0-4.05 1.46-7.3 4.38-9.74 2.92-2.44 6.77-3.67 11.56-3.67 2.79 0 5.51.38 8.16 1.14 2.65.76 4.84 1.87 6.55 3.31 1.71 1.45 2.56 3.12 2.56 5.01v8.68h-1.66c-.89-5.26-2.58-9.06-5.05-11.4-2.47-2.34-5.92-3.51-10.33-3.51-2.52 0-4.68.74-6.47 2.21s-2.68 3.37-2.68 5.68c0 2.1.66 3.85 1.97 5.25 1.31 1.39 3.52 3.04 6.63 4.93l9.7 5.76c3.58 2.1 6.13 4.12 7.65 6.03 1.52 1.92 2.29 4.3 2.29 7.14 0 4.47-1.54 8.02-4.61 10.65-3.08 2.63-7.3 3.94-12.66 3.94a30.6 30.6 0 01-8.58-1.18zm51.86-42.51c0-2.68-.37-4.67-1.1-5.96-.74-1.29-2.21-1.93-4.42-1.93h-1.34v-1.81h33.92c4.47 0 6.7 2.1 6.7 6.31v6.15h-1.81c0-6.15-3.29-9.23-9.86-9.23h-14.12v20.35H150v3.23h-21.06v22.01h13.72c3.42 0 6.14-.67 8.16-2.01 2.02-1.34 3.67-3.59 4.93-6.74l1.74.47-2.6 7.18c-.53 1.42-1.26 2.5-2.21 3.23-.95.74-2.26 1.1-3.94 1.1h-27.77v-42.35zm65.07 1.57v40.78h-3.31v-42.59c0-2.47-.54-4.36-1.62-5.68-1.08-1.31-2.91-1.97-5.48-1.97h-.71v-1.81h5.21c2.58 0 4.75.39 6.51 1.18 1.76.79 3.27 1.97 4.54 3.55l27.45 33.6v-38.34h3.39v52.69h-2.13l-33.85-41.41zm70.64 40.94c-2.76-.79-5.02-1.91-6.78-3.35-1.76-1.45-2.64-3.12-2.64-5.01v-8.68h1.66c.84 5.26 2.55 9.07 5.13 11.44 2.58 2.37 6.13 3.55 10.65 3.55 2.89 0 5.31-.7 7.26-2.09 1.94-1.39 2.92-3.35 2.92-5.88 0-2.21-.67-4.11-2.01-5.72-1.34-1.6-3.51-3.27-6.51-5.01l-9.7-5.76c-3.42-2-5.84-4.05-7.26-6.15-1.42-2.1-2.13-4.63-2.13-7.57 0-4.05 1.46-7.3 4.38-9.74 2.92-2.44 6.77-3.67 11.56-3.67 2.79 0 5.51.38 8.16 1.14 2.65.76 4.84 1.87 6.55 3.31 1.71 1.45 2.56 3.12 2.56 5.01v8.68h-1.66c-.89-5.26-2.58-9.06-5.05-11.4-2.47-2.34-5.92-3.51-10.33-3.51-2.52 0-4.68.74-6.47 2.21s-2.68 3.37-2.68 5.68c0 2.1.66 3.85 1.97 5.25 1.31 1.39 3.52 3.04 6.63 4.93l9.7 5.76c3.58 2.1 6.13 4.12 7.65 6.03 1.52 1.92 2.29 4.3 2.29 7.14 0 4.47-1.54 8.02-4.61 10.65-3.08 2.63-7.3 3.94-12.66 3.94a30.6 30.6 0 01-8.58-1.18zm51.86-42.51c0-2.68-.37-4.67-1.1-5.96-.74-1.29-2.21-1.93-4.42-1.93h-1.34v-1.81h33.92c4.47 0 6.7 2.1 6.7 6.31v6.15h-1.81c0-6.15-3.29-9.23-9.86-9.23h-14.12v20.35h21.06v3.23h-21.06v22.01h13.73c3.42 0 6.14-.67 8.16-2.01 2.02-1.34 3.67-3.59 4.93-6.74l1.74.47-2.6 7.18c-.53 1.42-1.26 2.5-2.21 3.23-.95.74-2.26 1.1-3.94 1.1h-27.77v-42.35zM40.57 140.84c-.7 3.68-4.06 4.65-8.26 8.88-1.56 1.57-3.71 4.07-5.7 7.77.03-1.5.51-21.64 7.25-23.19 1.15-.26 3.89-.32 5.52 1.4 1.77 1.87 1.26 4.8 1.19 5.14zM188.5 102.1c-15.97.12-29.87-11.35-32.87-24.68-4.38-19.51 16.89-36.64 16.5-36.31-.55.47-12.91 11.51-9.96 27.07 2.25 11.87 12.7 22.62 26.27 22.66 13.51.03 24.16-10.57 26.39-22.6 1.85-9.97-2.18-20.39-10.43-27.16 13.13 7.2 19.83 22.21 16.43 36.31-3.69 15.38-18.16 24.6-32.33 24.71zm.06 0h.52v22.86h-.52z"/><path transform="rotate(-24.981 210.516 112.565)" class="st53" d="M210.25 105.39h.52v14.34h-.52z"/><path transform="rotate(-65.039 165.624 112.643)" class="st53" d="M158.46 112.38h14.34v.52h-14.34z"/><path transform="rotate(-73.662 235.38 81.516)" class="st53" d="M235.13 74.34h.52v14.34h-.52z"/><path transform="rotate(-8.66 235.962 59.75)" class="st53" d="M228.74 59.44h14.34v.52h-14.34z"/><path transform="rotate(-48.677 225.932 100.806)" class="st53" d="M225.66 93.63h.52v14.34h-.52z"/><path transform="rotate(-15.515 140.98 81.507)" class="st53" d="M133.81 81.25h14.34v.52h-14.34z"/><path transform="rotate(-80.549 140.828 59.682)" class="st53" d="M140.56 52.51h.52v14.34h-.52z"/><path transform="rotate(-40.486 150.6 100.652)" class="st53" d="M143.44 100.4h14.34v.52h-14.34z"/><path class="st53" d="M188.31 14.02h.52v14.34h-.52z"/><path transform="rotate(-24.981 167.207 25.815)" class="st53" d="M166.94 18.64h.52v14.34h-.52z"/><path transform="rotate(-65.039 209.569 25.821)" class="st53" d="M202.4 25.56h14.34v.52H202.4z"/><path transform="rotate(-48.677 149.89 39.949)" class="st53" d="M149.62 32.78h.52v14.34h-.52z"/><path transform="rotate(-40.486 226.658 40.433)" class="st53" d="M219.5 40.17h14.34v.52H219.5z"/><path transform="rotate(-60.705 228.827 89.8)" class="st53" d="M228.56 85.97h.52v7.66h-.52z"/><path transform="rotate(-85.687 233.685 70.4)" class="st53" d="M233.43 66.58h.52v7.66h-.52z"/><path transform="rotate(-35.728 217.038 105.06)" class="st53" d="M216.77 101.22h.52v7.66h-.52z"/><path transform="rotate(-2.563 143 70.23)" class="st53" d="M139.09 69.96h7.66v.52h-7.66z"/><path transform="rotate(-67.597 147.17 50.57)" class="st53" d="M146.91 46.74h.52v7.66h-.52z"/><path transform="rotate(-27.567 147.882 89.71)" class="st53" d="M144.07 89.45h7.66v.52h-7.66z"/><path transform="rotate(-77.079 198.67 25.608)" class="st53" d="M194.85 25.35h7.66v.52h-7.66z"/><path transform="rotate(-12.029 178.286 25.607)" class="st53" d="M178.03 21.78h.52v7.66h-.52z"/><path transform="rotate(-52.099 216.912 34.573)" class="st53" d="M213.08 34.32h7.66v.52h-7.66z"/><path transform="rotate(-35.728 160.227 34.38)" class="st53" d="M159.96 30.55h.52v7.66h-.52z"/><path transform="rotate(-27.567 229.455 50.994)" class="st53" d="M225.65 50.73h7.66v.52h-7.66z"/><path transform="rotate(-53.658 160.01 105.381)" class="st53" d="M156.19 105.12h7.66v.52h-7.66z"/><circle class="st53" cx="177.01" cy="19.58" r=".93"/><circle class="st53" cx="199.92" cy="19.45" r=".93"/><circle class="st53" cx="220.87" cy="29.88" r=".93"/><circle class="st53" cx="234.98" cy="48.02" r=".93"/><circle class="st53" cx="240.17" cy="70.69" r=".93"/><circle class="st53" cx="234.24" cy="92.6" r=".93"/><circle class="st53" cx="220.77" cy="110.33" r=".93"/><circle class="st53" cx="156.1" cy="110.36" r=".93"/><circle class="st53" cx="141.91" cy="92.73" r=".93"/><circle class="st53" cx="136.44" cy="70.4" r=".93"/><circle class="st53" cx="141.2" cy="48.18" r=".93"/><circle class="st53" cx="156.13" cy="29.33" r=".93"/><path class="st53" d="M178.03 117.82l-1.21-.02c.08-6.31 4.97-11.51 11.13-11.83 3.07-.15 6.18.99 8.51 3.16 2.43 2.26 3.8 5.32 3.87 8.62l-1.21.02c-.06-2.97-1.29-5.72-3.48-7.76-2.09-1.95-4.87-2.98-7.63-2.84-5.52.3-9.91 4.97-9.98 10.65z"/><path class="st53" d="M188.82 125.4c-1.24-1.75-2.48-3.51-3.72-5.26l3.72-6.99 4.02 6.99c-1.34 1.75-2.68 3.51-4.02 5.26zm0-78.54c-5.58-1.91-11.17-3.81-16.75-5.72 5.58-1.96 11.17-3.92 16.75-5.88 5.2 1.94 10.4 3.88 15.59 5.82-5.19 1.93-10.39 3.86-15.59 5.78zm-15.06-5.73c5.02 1.58 10.04 3.17 15.06 4.75l13.77-4.8c-4.59-1.67-9.18-3.34-13.77-5-5.02 1.69-10.04 3.37-15.06 5.05z"/><path class="st53" d="M184.25 41.14c1.51.53 3.03 1.06 4.54 1.58 1.45-.53 2.9-1.06 4.35-1.58-1.44-.6-2.88-1.21-4.32-1.81-1.52.6-3.05 1.21-4.57 1.81z"/><circle class="st53" cx="188.82" cy="84.08" r="6.8"/><path class="st53" d="M188.82 75.02c-2.6 0-4.71-2.11-4.71-4.71s2.11-4.71 4.71-4.71 4.71 2.11 4.71 4.71-2.11 4.71-4.71 4.71zm0-8.19c-1.92 0-3.48 1.56-3.48 3.48s1.56 3.48 3.48 3.48 3.48-1.56 3.48-3.48-1.56-3.48-3.48-3.48zm0-4.01a2.57 2.57 0 110-5.14 2.57 2.57 0 110 5.14zm0-4.48a1.9 1.9 0 100 3.8 1.9 1.9 0 100-3.8z"/></svg>