<svg id="Слой_1" data-name="Слой 1" xmlns="http://www.w3.org/2000/svg" viewBox="0 0 229 210"><defs><style>.cls-1{fill:#7da765}.cls-2{fill:#007c37}.cls-3{fill:#005e2d}.cls-6{fill:#ff6b3e}.cls-10{fill:#c8e7fa}.cls-18{fill:#f5a977}.cls-19{fill:#ffa830;opacity:.77}</style></defs><path class="cls-1" d="M92.67 118.29h18.64v30.6H92.67z"/><path class="cls-2" d="M92.67 148.89h18.64v30.6H92.67z"/><path class="cls-3" d="M92.67 179.49h18.64v30.6H92.67z"/><path fill="#a03c8b" d="M30.38 5.97h18.64V32.1H30.38z"/><path fill="#9f3aa0" d="M30.38 32.11h18.64v78.35H30.38z"/><path class="cls-6" d="M65.5 84.32h17.8v26.13H65.5z"/><path transform="rotate(90 40.495 9.195)" fill="#6843b7" d="M31.18-31.25h18.64v80.88H31.18z"/><path fill="#b2bc21" d="M104.88 18.8h18.97v91.71h-18.97z"/><path fill="#00407d" d="M164.87 19.04h18.64v91.45h-18.64z"/><path class="cls-10" transform="rotate(90 196.575 61.215)" d="M187.26 48.14h18.64v26.13h-18.64z"/><path transform="rotate(90 216.27 28.27)" fill="#009bcc" d="M206.95 15.2h18.64v26.13h-18.64z"/><path transform="rotate(90 184.03 28.27)" fill="#005d9e" d="M174.71 9.1h18.64v38.34h-18.64z"/><path d="M146.53 18.64a36.2 36.2 0 1036.2 36.2 36.23 36.23 0 00-36.2-36.2zm18.22 36.2a18.22 18.22 0 11-18.22-18.21 18.24 18.24 0 0118.22 18.21z" fill="#e7e11f" opacity=".84"/><path fill="#1d1d1b" d="M192.32 118.55h35.99v91.56h-35.99z"/><path d="M220.12 190.83a8.72 8.72 0 01-2.83 6.81 10.22 10.22 0 01-7 2.41 10.1 10.1 0 01-7-2.49 8.65 8.65 0 01-2.91-6.78 9.73 9.73 0 01.24-2.3 6.44 6.44 0 01.9-2.17 2.27 2.27 0 011.85-1.19 1.88 1.88 0 011.34.53 1.69 1.69 0 01.57 1.29 4.61 4.61 0 01-.39 1.64 6.07 6.07 0 00-.38 2.17 4 4 0 001.88 3.55 7 7 0 004 1.09 6.37 6.37 0 003.94-1.14 4.29 4.29 0 001.69-3.63 6.78 6.78 0 00-.47-2.3 6.32 6.32 0 01-.46-1.7 1.58 1.58 0 01.58-1.24 1.93 1.93 0 012.5-.08c1.29.97 1.95 2.82 1.95 5.53zm-16.66-9.13c-2.08 0-3.12-.73-3.12-2.2s1-2.19 3.13-2.19h12.38v-3.74c0-2.08.68-3.12 2-3.12s2 1 2 3.12v5.14a3.62 3.62 0 01-.57 2.33 2.87 2.87 0 01-2.21.66zm7.8-13.45h-7.8c-2.08 0-3.12-.73-3.12-2.2s1-2.19 3.12-2.19h7.29q5.13 0 5.13-3.9t-5.13-3.89h-7.29q-3.12 0-3.12-2.19c0-1.47 1-2.2 3.12-2.2h7.8a9.25 9.25 0 016.4 2.09 9 9 0 010 12.39 9.25 9.25 0 01-6.4 2.09zm8.65-24.43a3.62 3.62 0 01-.57 2.33 2.87 2.87 0 01-2.21.66h-13.45a3.46 3.46 0 01-2.41-.66 3.26 3.26 0 01-.69-2.39v-3.6a8.63 8.63 0 011.08-4.45 4.11 4.11 0 013.74-2.22q3.15 0 4.26 2.28h.08a4.6 4.6 0 011.55-2.44 4.69 4.69 0 012.79-.74 5.24 5.24 0 014.47 2 7.81 7.81 0 011.36 4.84zm-15.57-1.41h3.78v-1.9a3.82 3.82 0 00-.31-1.83 1.69 1.69 0 00-1.59-.74c-1.26 0-1.88.85-1.88 2.57zm7.23 0h4.55v-2.2a4.54 4.54 0 00-.37-2.09 1.89 1.89 0 00-1.8-.9 2.1 2.1 0 00-2 .88 4.6 4.6 0 00-.37 2.19z" fill="#fff"/><path fill="#f0840e" d="M65.5 58.18h17.8v26.13H65.5z"/><path transform="rotate(42.29 102.986 34.802)" opacity=".8" fill="#f0840e" d="M93.66 21.58h18.64v26.45H93.66z"/><path class="cls-18" transform="rotate(42.29 85.288 54.25)" d="M75.97 41.18h18.64v26.13H75.97z"/><path class="cls-19" transform="rotate(137.71 46.605 35.235)" d="M37.29 21.37h18.64v27.74H37.29z"/><path transform="rotate(137.71 64.194 54.568)" fill="#ffbc2e" d="M54.87 42.31h18.64v24.53H54.87z"/><path class="cls-10" transform="rotate(90 216.265 101.195)" d="M206.95 88.12h18.64v26.13h-18.64z"/><path transform="rotate(90 184.035 101.195)" opacity=".78" fill="#009bcc" d="M174.72 82.03h18.64v38.33h-18.64z"/><path class="cls-6" d="M119.62 118.6h18.64v91.45h-18.64z"/><path class="cls-18" transform="rotate(90 151.325 160.775)" d="M142.01 147.71h18.64v26.13h-18.64z"/><path class="cls-19" transform="rotate(90 171.015 127.835)" d="M161.7 114.76h18.64v26.13H161.7z"/><path transform="rotate(90 138.775 127.835)" opacity=".78" fill="#f0840e" d="M129.46 108.66h18.64V147h-18.64z"/><path class="cls-18" transform="rotate(90 171.015 200.755)" d="M161.7 187.69h18.64v26.13H161.7z"/><path transform="rotate(90 138.785 200.755)" opacity=".78" fill="#ffbc2e" d="M129.47 181.59h18.64v38.33h-18.64z"/><path class="cls-1" d="M30.38 118.29h18.64v30.51H30.38z"/><path class="cls-2" d="M30.38 148.8h18.64v30.51H30.38z"/><path class="cls-3" d="M30.38 179.31h18.64v30.51H30.38z"/><path d="M91.51 118.38v2.91a20.73 20.73 0 01-41.45-.06v-2.94H30.38l.05 3a40.1 40.1 0 0011.85 28.51c2.77 2.76 13 11.78 28.24 11.78h.28c22-.15 33.78-19 34.28-19.78a41.79 41.79 0 006-20.47l.1-3z" opacity=".71" fill="#005e2d"/></svg>